<svg xmlns="http://www.w3.org/2000/svg" xmlns:xlink="http://www.w3.org/1999/xlink" zoomAndPan="magnify" preserveAspectRatio="xMidYMid meet" version="1.0" viewBox="60.31 148.24 234.31 78.75"><defs><g/><clipPath id="0942c8cb30"><path d="M 60.542969 148.261719 L 116.558594 148.261719 L 116.558594 214.292969 L 60.542969 214.292969 Z M 60.542969 148.261719 " clip-rule="nonzero"/></clipPath><clipPath id="ba64aa080e"><path d="M 69 223 L 108 223 L 108 226.988281 L 69 226.988281 Z M 69 223 " clip-rule="nonzero"/></clipPath><clipPath id="ac11db2660"><path d="M 69 223 L 105 223 L 105 226.988281 L 69 226.988281 Z M 69 223 " clip-rule="nonzero"/></clipPath><clipPath id="fa36a9cd2e"><path d="M 60.308594 148.238281 L 85 148.238281 L 85 215 L 60.308594 215 Z M 60.308594 148.238281 " clip-rule="nonzero"/></clipPath></defs><path fill="#005daa" d="M 75.003906 214.285156 C 75.003906 216.136719 75.835938 217.640625 76.859375 217.640625 L 100.242188 217.640625 C 101.269531 217.640625 102.101562 216.136719 102.101562 214.285156 C 102.101562 214.269531 102.097656 214.257812 102.097656 214.246094 L 75.003906 214.246094 C 75.003906 214.257812 75.003906 214.269531 75.003906 214.285156 " fill-opacity="1" fill-rule="nonzero"/><g clip-path="url(#0942c8cb30)"><path fill="#01b4e7" d="M 116.554688 198.359375 C 116.796875 188.9375 108.710938 171.800781 106.609375 162.007812 C 106.355469 160.824219 105.980469 158.074219 107.664062 157.285156 C 109.621094 156.367188 111.492188 159.480469 111.492188 159.480469 C 111.492188 159.480469 115.976562 158.703125 115.742188 154.699219 C 115.589844 152.101562 112.59375 148.261719 108.121094 148.261719 C 104.25 148.261719 99.683594 152.03125 99.683594 156.628906 C 99.683594 170.640625 106.609375 187.445312 106.679688 193.195312 C 106.789062 201.996094 103.460938 207.769531 100.15625 208.097656 C 98.246094 208.289062 91.40625 208.253906 88.550781 208.230469 C 85.695312 208.253906 78.855469 208.289062 76.949219 208.097656 C 73.644531 207.769531 70.316406 201.996094 70.421875 193.195312 C 70.492188 187.445312 77.421875 170.640625 77.421875 156.628906 C 77.421875 152.03125 72.855469 148.261719 68.984375 148.261719 C 64.511719 148.261719 61.515625 152.101562 61.363281 154.699219 C 61.125 158.703125 65.613281 159.480469 65.613281 159.480469 C 65.613281 159.480469 67.484375 156.367188 69.441406 157.285156 C 71.125 158.074219 70.746094 160.824219 70.492188 162.007812 C 68.394531 171.800781 60.304688 188.9375 60.550781 198.359375 C 60.679688 203.367188 60.554688 213.554688 75.003906 214.246094 L 102.097656 214.246094 C 116.546875 213.554688 116.421875 203.367188 116.554688 198.359375 " fill-opacity="1" fill-rule="nonzero"/></g><path fill="#005daa" d="M 100.242188 164.144531 C 100.113281 163.199219 100 162.253906 99.914062 161.316406 L 77.1875 161.316406 C 77.101562 162.253906 76.992188 163.199219 76.859375 164.144531 L 100.242188 164.144531 " fill-opacity="1" fill-rule="nonzero"/><path fill="#01b4e7" d="M 98.082031 217.640625 L 79.019531 217.640625 C 77.847656 217.640625 76.894531 219.320312 76.894531 220.488281 L 100.207031 220.488281 C 100.207031 219.320312 99.257812 217.640625 98.082031 217.640625 " fill-opacity="1" fill-rule="nonzero"/><path fill="#005daa" d="M 101.9375 220.488281 L 75.167969 220.488281 C 73.992188 220.488281 73.042969 222.5 73.042969 223.667969 L 104.0625 223.667969 C 104.0625 222.5 103.109375 220.488281 101.9375 220.488281 " fill-opacity="1" fill-rule="nonzero"/><g clip-path="url(#ba64aa080e)"><path fill="#01b4e7" d="M 105.492188 223.667969 L 71.609375 223.667969 C 70.4375 223.667969 69.484375 224.621094 69.484375 225.789062 C 69.484375 226.960938 70.4375 226.867188 71.609375 226.867188 L 105.492188 226.867188 C 106.667969 226.867188 107.617188 226.960938 107.617188 225.789062 C 107.617188 224.621094 106.667969 223.667969 105.492188 223.667969 " fill-opacity="1" fill-rule="nonzero"/></g><path fill="#005daa" d="M 89.140625 208.234375 L 89.140625 153.347656 C 89.140625 153.019531 88.878906 152.757812 88.550781 152.757812 C 88.226562 152.757812 87.960938 153.019531 87.960938 153.347656 L 87.960938 208.234375 C 88.171875 208.230469 88.371094 208.230469 88.550781 208.230469 C 88.734375 208.230469 88.929688 208.230469 89.140625 208.234375 " fill-opacity="1" fill-rule="nonzero"/><path fill="#005daa" d="M 85.210938 208.246094 L 85.210938 154.949219 C 85.210938 154.625 84.945312 154.359375 84.617188 154.359375 C 84.292969 154.359375 84.027344 154.625 84.027344 154.949219 L 84.027344 208.25 C 84.429688 208.25 84.824219 208.25 85.210938 208.246094 " fill-opacity="1" fill-rule="nonzero"/><path fill="#005daa" d="M 93.074219 208.25 L 93.074219 154.949219 C 93.074219 154.625 92.808594 154.359375 92.484375 154.359375 C 92.160156 154.359375 91.894531 154.625 91.894531 154.949219 L 91.894531 208.246094 C 92.28125 208.25 92.675781 208.25 93.074219 208.25 " fill-opacity="1" fill-rule="nonzero"/><path fill="#005daa" d="M 81.347656 157.796875 C 81.347656 157.472656 81.085938 157.210938 80.757812 157.210938 C 80.433594 157.210938 80.167969 157.472656 80.167969 157.796875 L 80.167969 208.222656 C 80.546875 208.226562 80.941406 208.234375 81.347656 208.238281 L 81.347656 157.796875 " fill-opacity="1" fill-rule="nonzero"/><path fill="#005daa" d="M 96.933594 157.796875 C 96.933594 157.472656 96.671875 157.210938 96.34375 157.210938 C 96.019531 157.210938 95.753906 157.472656 95.753906 157.796875 L 95.753906 208.238281 C 96.160156 208.234375 96.554688 208.226562 96.933594 208.222656 L 96.933594 157.796875 " fill-opacity="1" fill-rule="nonzero"/><path fill="#01b4e7" d="M 84.445312 214.246094 L 75.003906 214.246094 C 75.003906 214.257812 75.003906 214.269531 75.003906 214.285156 C 75.003906 216.136719 75.835938 217.640625 76.859375 217.640625 L 87.84375 217.640625 C 86.660156 216.585938 85.523438 215.449219 84.445312 214.246094 " fill-opacity="1" fill-rule="nonzero"/><path fill="#005daa" d="M 87.84375 217.640625 L 79.019531 217.640625 C 77.847656 217.640625 76.894531 219.320312 76.894531 220.488281 L 91.40625 220.488281 C 90.179688 219.609375 88.988281 218.660156 87.84375 217.640625 " fill-opacity="1" fill-rule="nonzero"/><path fill="#01b4e7" d="M 91.40625 220.488281 L 75.167969 220.488281 C 73.992188 220.488281 73.042969 222.5 73.042969 223.667969 L 96.613281 223.667969 C 94.816406 222.746094 93.074219 221.683594 91.40625 220.488281 " fill-opacity="1" fill-rule="nonzero"/><g clip-path="url(#ac11db2660)"><path fill="#005daa" d="M 73.042969 223.667969 L 71.609375 223.667969 C 70.4375 223.667969 69.484375 224.621094 69.484375 225.789062 C 69.484375 226.960938 70.4375 226.867188 71.609375 226.867188 L 104.921875 226.867188 C 102.066406 226.113281 99.277344 225.042969 96.613281 223.667969 L 73.042969 223.667969 " fill-opacity="1" fill-rule="nonzero"/></g><g clip-path="url(#fa36a9cd2e)"><path fill="#005daa" d="M 79.929688 208.21875 C 78.632812 208.195312 77.546875 208.160156 76.949219 208.097656 C 73.644531 207.769531 70.316406 201.996094 70.421875 193.195312 C 70.480469 188.449219 75.210938 176.167969 76.859375 164.144531 C 76.992188 163.199219 77.101562 162.253906 77.1875 161.316406 C 77.335938 159.730469 77.421875 158.164062 77.421875 156.628906 C 77.421875 152.03125 72.855469 148.261719 68.984375 148.261719 C 64.511719 148.261719 61.515625 152.101562 61.363281 154.699219 C 61.125 158.703125 65.613281 159.480469 65.613281 159.480469 C 65.613281 159.480469 67.484375 156.367188 69.441406 157.285156 C 71.125 158.074219 70.746094 160.824219 70.492188 162.007812 C 68.394531 171.800781 60.304688 188.9375 60.550781 198.359375 C 60.679688 203.367188 60.554688 213.554688 75.003906 214.246094 L 84.445312 214.246094 C 82.796875 212.402344 81.285156 210.390625 79.929688 208.21875 " fill-opacity="1" fill-rule="nonzero"/></g><g fill="#01b4e7" fill-opacity="1"><g transform="translate(127.192439, 195.387028)"><g><path d="M 3.78125 0 L 3.78125 -29.984375 L 10.125 -29.984375 L 10.125 0 Z M 3.78125 0 "/></g></g></g><g fill="#01b4e7" fill-opacity="1"><g transform="translate(141.092855, 195.387028)"><g><path d="M 24.453125 0 L 18.1875 0 L 18.1875 -13.390625 C 18.1875 -15.046875 17.890625 -16.285156 17.296875 -17.109375 C 16.710938 -17.941406 15.78125 -18.359375 14.5 -18.359375 C 12.75 -18.359375 11.484375 -17.769531 10.703125 -16.59375 C 9.921875 -15.425781 9.53125 -13.488281 9.53125 -10.78125 L 9.53125 0 L 3.28125 0 L 3.28125 -22.921875 L 8.0625 -22.921875 L 8.90625 -20 L 9.25 -20 C 9.945312 -21.101562 10.90625 -21.9375 12.125 -22.5 C 13.351562 -23.070312 14.742188 -23.359375 16.296875 -23.359375 C 18.960938 -23.359375 20.988281 -22.632812 22.375 -21.1875 C 23.757812 -19.75 24.453125 -17.671875 24.453125 -14.953125 Z M 24.453125 0 "/></g></g></g><g fill="#01b4e7" fill-opacity="1"><g transform="translate(168.688667, 195.387028)"><g><path d="M 12.9375 -4.578125 C 14.03125 -4.578125 15.34375 -4.816406 16.875 -5.296875 L 16.875 -0.640625 C 15.320312 0.0546875 13.410156 0.40625 11.140625 0.40625 C 8.640625 0.40625 6.816406 -0.222656 5.671875 -1.484375 C 4.523438 -2.753906 3.953125 -4.648438 3.953125 -7.171875 L 3.953125 -18.234375 L 0.96875 -18.234375 L 0.96875 -20.875 L 4.40625 -22.96875 L 6.21875 -27.8125 L 10.21875 -27.8125 L 10.21875 -22.921875 L 16.625 -22.921875 L 16.625 -18.234375 L 10.21875 -18.234375 L 10.21875 -7.171875 C 10.21875 -6.285156 10.460938 -5.628906 10.953125 -5.203125 C 11.453125 -4.785156 12.113281 -4.578125 12.9375 -4.578125 Z M 12.9375 -4.578125 "/></g></g></g><g fill="#01b4e7" fill-opacity="1"><g transform="translate(186.91503, 195.387028)"><g><path d="M 12.78125 -18.90625 C 11.445312 -18.90625 10.40625 -18.484375 9.65625 -17.640625 C 8.90625 -16.804688 8.476562 -15.613281 8.375 -14.0625 L 17.140625 -14.0625 C 17.117188 -15.613281 16.71875 -16.804688 15.9375 -17.640625 C 15.15625 -18.484375 14.101562 -18.90625 12.78125 -18.90625 Z M 13.65625 0.40625 C 9.96875 0.40625 7.082031 -0.609375 5 -2.640625 C 2.925781 -4.679688 1.890625 -7.566406 1.890625 -11.296875 C 1.890625 -15.140625 2.847656 -18.109375 4.765625 -20.203125 C 6.691406 -22.304688 9.347656 -23.359375 12.734375 -23.359375 C 15.972656 -23.359375 18.492188 -22.4375 20.296875 -20.59375 C 22.109375 -18.75 23.015625 -16.195312 23.015625 -12.9375 L 23.015625 -9.90625 L 8.21875 -9.90625 C 8.289062 -8.125 8.816406 -6.734375 9.796875 -5.734375 C 10.785156 -4.742188 12.171875 -4.25 13.953125 -4.25 C 15.328125 -4.25 16.628906 -4.390625 17.859375 -4.671875 C 19.085938 -4.960938 20.375 -5.421875 21.71875 -6.046875 L 21.71875 -1.203125 C 20.625 -0.660156 19.453125 -0.257812 18.203125 0 C 16.960938 0.269531 15.445312 0.40625 13.65625 0.40625 Z M 13.65625 0.40625 "/></g></g></g><g fill="#01b4e7" fill-opacity="1"><g transform="translate(211.722558, 195.387028)"><g><path d="M 16.078125 -23.359375 C 16.921875 -23.359375 17.625 -23.296875 18.1875 -23.171875 L 17.71875 -17.3125 C 17.207031 -17.445312 16.59375 -17.515625 15.875 -17.515625 C 13.875 -17.515625 12.316406 -17 11.203125 -15.96875 C 10.085938 -14.945312 9.53125 -13.515625 9.53125 -11.671875 L 9.53125 0 L 3.28125 0 L 3.28125 -22.921875 L 8.015625 -22.921875 L 8.9375 -19.078125 L 9.25 -19.078125 C 9.957031 -20.359375 10.914062 -21.390625 12.125 -22.171875 C 13.34375 -22.960938 14.660156 -23.359375 16.078125 -23.359375 Z M 16.078125 -23.359375 "/></g></g></g><g fill="#01b4e7" fill-opacity="1"><g transform="translate(230.7895, 195.387028)"><g><path d="M 17.84375 0 L 16.625 -3.125 L 16.46875 -3.125 C 15.414062 -1.789062 14.332031 -0.867188 13.21875 -0.359375 C 12.101562 0.148438 10.648438 0.40625 8.859375 0.40625 C 6.660156 0.40625 4.925781 -0.21875 3.65625 -1.46875 C 2.394531 -2.726562 1.765625 -4.519531 1.765625 -6.84375 C 1.765625 -9.28125 2.613281 -11.078125 4.3125 -12.234375 C 6.019531 -13.390625 8.585938 -14.03125 12.015625 -14.15625 L 16 -14.28125 L 16 -15.28125 C 16 -17.601562 14.804688 -18.765625 12.421875 -18.765625 C 10.597656 -18.765625 8.445312 -18.210938 5.96875 -17.109375 L 3.890625 -21.328125 C 6.535156 -22.710938 9.460938 -23.40625 12.671875 -23.40625 C 15.742188 -23.40625 18.097656 -22.734375 19.734375 -21.390625 C 21.378906 -20.046875 22.203125 -18.007812 22.203125 -15.28125 L 22.203125 0 Z M 16 -10.625 L 13.578125 -10.546875 C 11.753906 -10.484375 10.398438 -10.148438 9.515625 -9.546875 C 8.628906 -8.953125 8.1875 -8.039062 8.1875 -6.8125 C 8.1875 -5.039062 9.195312 -4.15625 11.21875 -4.15625 C 12.664062 -4.15625 13.820312 -4.570312 14.6875 -5.40625 C 15.5625 -6.25 16 -7.359375 16 -8.734375 Z M 16 -10.625 "/></g></g></g><g fill="#01b4e7" fill-opacity="1"><g transform="translate(256.150591, 195.387028)"><g><path d="M 12.59375 0.40625 C 5.457031 0.40625 1.890625 -3.507812 1.890625 -11.34375 C 1.890625 -15.238281 2.859375 -18.210938 4.796875 -20.265625 C 6.742188 -22.328125 9.523438 -23.359375 13.140625 -23.359375 C 15.796875 -23.359375 18.175781 -22.835938 20.28125 -21.796875 L 18.4375 -16.953125 C 17.445312 -17.359375 16.53125 -17.6875 15.6875 -17.9375 C 14.84375 -18.1875 13.992188 -18.3125 13.140625 -18.3125 C 9.890625 -18.3125 8.265625 -16 8.265625 -11.375 C 8.265625 -6.894531 9.890625 -4.65625 13.140625 -4.65625 C 14.347656 -4.65625 15.460938 -4.816406 16.484375 -5.140625 C 17.515625 -5.460938 18.539062 -5.960938 19.5625 -6.640625 L 19.5625 -1.296875 C 18.550781 -0.648438 17.53125 -0.207031 16.5 0.03125 C 15.46875 0.28125 14.164062 0.40625 12.59375 0.40625 Z M 12.59375 0.40625 "/></g></g></g><g fill="#01b4e7" fill-opacity="1"><g transform="translate(277.739296, 195.387028)"><g><path d="M 12.9375 -4.578125 C 14.03125 -4.578125 15.34375 -4.816406 16.875 -5.296875 L 16.875 -0.640625 C 15.320312 0.0546875 13.410156 0.40625 11.140625 0.40625 C 8.640625 0.40625 6.816406 -0.222656 5.671875 -1.484375 C 4.523438 -2.753906 3.953125 -4.648438 3.953125 -7.171875 L 3.953125 -18.234375 L 0.96875 -18.234375 L 0.96875 -20.875 L 4.40625 -22.96875 L 6.21875 -27.8125 L 10.21875 -27.8125 L 10.21875 -22.921875 L 16.625 -22.921875 L 16.625 -18.234375 L 10.21875 -18.234375 L 10.21875 -7.171875 C 10.21875 -6.285156 10.460938 -5.628906 10.953125 -5.203125 C 11.453125 -4.785156 12.113281 -4.578125 12.9375 -4.578125 Z M 12.9375 -4.578125 "/></g></g></g><g fill="#01b4e7" fill-opacity="1"><g transform="translate(127.192439, 216.887081)"><g><path d="M 3.09375 0 L 2 0 L 3.765625 -8.328125 L 1.1875 -8.328125 L 1.390625 -9.28125 L 7.640625 -9.28125 L 7.453125 -8.328125 L 4.859375 -8.328125 Z M 3.09375 0 "/></g></g></g><g fill="#01b4e7" fill-opacity="1"><g transform="translate(133.665102, 216.887081)"><g><path d="M 4.78125 -7.078125 C 5.070312 -7.078125 5.320312 -7.050781 5.53125 -7 L 5.3125 -6.046875 C 5.082031 -6.097656 4.859375 -6.125 4.640625 -6.125 C 4.253906 -6.125 3.890625 -5.992188 3.546875 -5.734375 C 3.210938 -5.484375 2.921875 -5.132812 2.671875 -4.6875 C 2.421875 -4.238281 2.238281 -3.738281 2.125 -3.1875 L 1.4375 0 L 0.375 0 L 1.859375 -6.953125 L 2.75 -6.953125 L 2.609375 -5.671875 L 2.671875 -5.671875 C 2.972656 -6.066406 3.222656 -6.351562 3.421875 -6.53125 C 3.617188 -6.707031 3.828125 -6.84375 4.046875 -6.9375 C 4.265625 -7.03125 4.507812 -7.078125 4.78125 -7.078125 Z M 4.78125 -7.078125 "/></g></g></g><g fill="#01b4e7" fill-opacity="1"><g transform="translate(138.81151, 216.887081)"><g><path d="M 4.0625 -7.078125 C 4.445312 -7.078125 4.789062 -6.972656 5.09375 -6.765625 C 5.394531 -6.554688 5.632812 -6.253906 5.8125 -5.859375 L 5.875 -5.859375 L 6.296875 -6.953125 L 7.109375 -6.953125 L 5.625 0 L 4.78125 0 L 4.953125 -1.328125 L 4.90625 -1.328125 C 4.144531 -0.359375 3.34375 0.125 2.5 0.125 C 1.914062 0.125 1.457031 -0.0820312 1.125 -0.5 C 0.789062 -0.914062 0.625 -1.488281 0.625 -2.21875 C 0.625 -3.101562 0.773438 -3.921875 1.078125 -4.671875 C 1.378906 -5.421875 1.789062 -6.007812 2.3125 -6.4375 C 2.84375 -6.863281 3.425781 -7.078125 4.0625 -7.078125 Z M 2.84375 -0.75 C 3.257812 -0.75 3.671875 -0.945312 4.078125 -1.34375 C 4.484375 -1.738281 4.8125 -2.25 5.0625 -2.875 C 5.320312 -3.5 5.453125 -4.128906 5.453125 -4.765625 C 5.453125 -5.203125 5.332031 -5.546875 5.09375 -5.796875 C 4.851562 -6.054688 4.539062 -6.1875 4.15625 -6.1875 C 3.71875 -6.1875 3.304688 -6.003906 2.921875 -5.640625 C 2.546875 -5.273438 2.25 -4.78125 2.03125 -4.15625 C 1.820312 -3.539062 1.71875 -2.890625 1.71875 -2.203125 C 1.71875 -1.710938 1.816406 -1.347656 2.015625 -1.109375 C 2.210938 -0.867188 2.488281 -0.75 2.84375 -0.75 Z M 2.84375 -0.75 "/></g></g></g><g fill="#01b4e7" fill-opacity="1"><g transform="translate(146.153546, 216.887081)"><g><path d="M 4.625 0 L 5.5625 -4.390625 C 5.644531 -4.828125 5.6875 -5.132812 5.6875 -5.3125 C 5.6875 -5.570312 5.613281 -5.78125 5.46875 -5.9375 C 5.320312 -6.101562 5.082031 -6.1875 4.75 -6.1875 C 4.375 -6.1875 4.003906 -6.054688 3.640625 -5.796875 C 3.285156 -5.546875 2.972656 -5.1875 2.703125 -4.71875 C 2.429688 -4.25 2.222656 -3.679688 2.078125 -3.015625 L 1.4375 0 L 0.375 0 L 1.859375 -6.953125 L 2.75 -6.953125 L 2.609375 -5.671875 L 2.671875 -5.671875 C 3.078125 -6.179688 3.46875 -6.539062 3.84375 -6.75 C 4.21875 -6.96875 4.609375 -7.078125 5.015625 -7.078125 C 5.554688 -7.078125 5.984375 -6.929688 6.296875 -6.640625 C 6.609375 -6.347656 6.765625 -5.9375 6.765625 -5.40625 C 6.765625 -5.070312 6.710938 -4.691406 6.609375 -4.265625 L 5.703125 0 Z M 4.625 0 "/></g></g></g><g fill="#01b4e7" fill-opacity="1"><g transform="translate(153.654221, 216.887081)"><g><path d="M 4.671875 -1.96875 C 4.671875 -1.3125 4.4375 -0.796875 3.96875 -0.421875 C 3.5 -0.0546875 2.835938 0.125 1.984375 0.125 C 1.273438 0.125 0.628906 -0.0195312 0.046875 -0.3125 L 0.046875 -1.3125 C 0.347656 -1.132812 0.671875 -0.992188 1.015625 -0.890625 C 1.359375 -0.796875 1.675781 -0.75 1.96875 -0.75 C 2.5 -0.75 2.898438 -0.851562 3.171875 -1.0625 C 3.441406 -1.28125 3.578125 -1.554688 3.578125 -1.890625 C 3.578125 -2.128906 3.5 -2.332031 3.34375 -2.5 C 3.195312 -2.664062 2.878906 -2.890625 2.390625 -3.171875 C 1.835938 -3.484375 1.445312 -3.785156 1.21875 -4.078125 C 0.988281 -4.378906 0.875 -4.734375 0.875 -5.140625 C 0.875 -5.722656 1.085938 -6.191406 1.515625 -6.546875 C 1.953125 -6.898438 2.519531 -7.078125 3.21875 -7.078125 C 3.9375 -7.078125 4.632812 -6.921875 5.3125 -6.609375 L 4.96875 -5.75 L 4.609375 -5.90625 C 4.179688 -6.082031 3.71875 -6.171875 3.21875 -6.171875 C 2.820312 -6.171875 2.507812 -6.078125 2.28125 -5.890625 C 2.0625 -5.710938 1.953125 -5.476562 1.953125 -5.1875 C 1.953125 -4.945312 2.023438 -4.742188 2.171875 -4.578125 C 2.328125 -4.410156 2.640625 -4.191406 3.109375 -3.921875 C 3.554688 -3.671875 3.878906 -3.453125 4.078125 -3.265625 C 4.273438 -3.085938 4.421875 -2.894531 4.515625 -2.6875 C 4.617188 -2.476562 4.671875 -2.238281 4.671875 -1.96875 Z M 4.671875 -1.96875 "/></g></g></g><g fill="#01b4e7" fill-opacity="1"><g transform="translate(159.219448, 216.887081)"><g><path d="M 1.4375 0 L 0.375 0 L 1.859375 -6.953125 L 2.921875 -6.953125 Z M 2.15625 -8.734375 C 2.15625 -8.972656 2.222656 -9.164062 2.359375 -9.3125 C 2.492188 -9.46875 2.671875 -9.546875 2.890625 -9.546875 C 3.265625 -9.546875 3.453125 -9.351562 3.453125 -8.96875 C 3.453125 -8.738281 3.378906 -8.539062 3.234375 -8.375 C 3.085938 -8.21875 2.925781 -8.140625 2.75 -8.140625 C 2.570312 -8.140625 2.425781 -8.191406 2.3125 -8.296875 C 2.207031 -8.398438 2.15625 -8.546875 2.15625 -8.734375 Z M 2.15625 -8.734375 "/></g></g></g><g fill="#01b4e7" fill-opacity="1"><g transform="translate(162.519237, 216.887081)"><g><path d="M 1.421875 0 L 0.359375 0 L 2.46875 -9.875 L 3.53125 -9.875 Z M 1.421875 0 "/></g></g></g><g fill="#01b4e7" fill-opacity="1"><g transform="translate(165.819027, 216.887081)"><g><path d="M 1.421875 0 L 0.625 -6.953125 L 1.6875 -6.953125 L 2.09375 -3.0625 C 2.195312 -1.96875 2.25 -1.203125 2.25 -0.765625 L 2.28125 -0.765625 C 2.820312 -1.929688 3.203125 -2.71875 3.421875 -3.125 L 5.484375 -6.953125 L 6.609375 -6.953125 L 2.859375 0 Z M 1.421875 0 "/></g></g></g><g fill="#01b4e7" fill-opacity="1"><g transform="translate(171.822105, 216.887081)"><g><path d="M 4.0625 -7.078125 C 4.445312 -7.078125 4.789062 -6.972656 5.09375 -6.765625 C 5.394531 -6.554688 5.632812 -6.253906 5.8125 -5.859375 L 5.875 -5.859375 L 6.296875 -6.953125 L 7.109375 -6.953125 L 5.625 0 L 4.78125 0 L 4.953125 -1.328125 L 4.90625 -1.328125 C 4.144531 -0.359375 3.34375 0.125 2.5 0.125 C 1.914062 0.125 1.457031 -0.0820312 1.125 -0.5 C 0.789062 -0.914062 0.625 -1.488281 0.625 -2.21875 C 0.625 -3.101562 0.773438 -3.921875 1.078125 -4.671875 C 1.378906 -5.421875 1.789062 -6.007812 2.3125 -6.4375 C 2.84375 -6.863281 3.425781 -7.078125 4.0625 -7.078125 Z M 2.84375 -0.75 C 3.257812 -0.75 3.671875 -0.945312 4.078125 -1.34375 C 4.484375 -1.738281 4.8125 -2.25 5.0625 -2.875 C 5.320312 -3.5 5.453125 -4.128906 5.453125 -4.765625 C 5.453125 -5.203125 5.332031 -5.546875 5.09375 -5.796875 C 4.851562 -6.054688 4.539062 -6.1875 4.15625 -6.1875 C 3.71875 -6.1875 3.304688 -6.003906 2.921875 -5.640625 C 2.546875 -5.273438 2.25 -4.78125 2.03125 -4.15625 C 1.820312 -3.539062 1.71875 -2.890625 1.71875 -2.203125 C 1.71875 -1.710938 1.816406 -1.347656 2.015625 -1.109375 C 2.210938 -0.867188 2.488281 -0.75 2.84375 -0.75 Z M 2.84375 -0.75 "/></g></g></g><g fill="#01b4e7" fill-opacity="1"><g transform="translate(179.164141, 216.887081)"><g><path d="M 4.625 0 L 5.5625 -4.390625 C 5.644531 -4.828125 5.6875 -5.132812 5.6875 -5.3125 C 5.6875 -5.570312 5.613281 -5.78125 5.46875 -5.9375 C 5.320312 -6.101562 5.082031 -6.1875 4.75 -6.1875 C 4.375 -6.1875 4.003906 -6.054688 3.640625 -5.796875 C 3.285156 -5.546875 2.972656 -5.1875 2.703125 -4.71875 C 2.429688 -4.25 2.222656 -3.679688 2.078125 -3.015625 L 1.4375 0 L 0.375 0 L 1.859375 -6.953125 L 2.75 -6.953125 L 2.609375 -5.671875 L 2.671875 -5.671875 C 3.078125 -6.179688 3.46875 -6.539062 3.84375 -6.75 C 4.21875 -6.96875 4.609375 -7.078125 5.015625 -7.078125 C 5.554688 -7.078125 5.984375 -6.929688 6.296875 -6.640625 C 6.609375 -6.347656 6.765625 -5.9375 6.765625 -5.40625 C 6.765625 -5.070312 6.710938 -4.691406 6.609375 -4.265625 L 5.703125 0 Z M 4.625 0 "/></g></g></g><g fill="#01b4e7" fill-opacity="1"><g transform="translate(186.664816, 216.887081)"><g><path d="M 1.4375 0 L 0.375 0 L 1.859375 -6.953125 L 2.921875 -6.953125 Z M 2.15625 -8.734375 C 2.15625 -8.972656 2.222656 -9.164062 2.359375 -9.3125 C 2.492188 -9.46875 2.671875 -9.546875 2.890625 -9.546875 C 3.265625 -9.546875 3.453125 -9.351562 3.453125 -8.96875 C 3.453125 -8.738281 3.378906 -8.539062 3.234375 -8.375 C 3.085938 -8.21875 2.925781 -8.140625 2.75 -8.140625 C 2.570312 -8.140625 2.425781 -8.191406 2.3125 -8.296875 C 2.207031 -8.398438 2.15625 -8.546875 2.15625 -8.734375 Z M 2.15625 -8.734375 "/></g></g></g><g fill="#01b4e7" fill-opacity="1"><g transform="translate(189.964605, 216.887081)"><g><path d="M 4.0625 -7.078125 C 4.445312 -7.078125 4.789062 -6.972656 5.09375 -6.765625 C 5.394531 -6.554688 5.632812 -6.253906 5.8125 -5.859375 L 5.875 -5.859375 L 6.296875 -6.953125 L 7.109375 -6.953125 L 5.625 0 L 4.78125 0 L 4.953125 -1.328125 L 4.90625 -1.328125 C 4.144531 -0.359375 3.34375 0.125 2.5 0.125 C 1.914062 0.125 1.457031 -0.0820312 1.125 -0.5 C 0.789062 -0.914062 0.625 -1.488281 0.625 -2.21875 C 0.625 -3.101562 0.773438 -3.921875 1.078125 -4.671875 C 1.378906 -5.421875 1.789062 -6.007812 2.3125 -6.4375 C 2.84375 -6.863281 3.425781 -7.078125 4.0625 -7.078125 Z M 2.84375 -0.75 C 3.257812 -0.75 3.671875 -0.945312 4.078125 -1.34375 C 4.484375 -1.738281 4.8125 -2.25 5.0625 -2.875 C 5.320312 -3.5 5.453125 -4.128906 5.453125 -4.765625 C 5.453125 -5.203125 5.332031 -5.546875 5.09375 -5.796875 C 4.851562 -6.054688 4.539062 -6.1875 4.15625 -6.1875 C 3.71875 -6.1875 3.304688 -6.003906 2.921875 -5.640625 C 2.546875 -5.273438 2.25 -4.78125 2.03125 -4.15625 C 1.820312 -3.539062 1.71875 -2.890625 1.71875 -2.203125 C 1.71875 -1.710938 1.816406 -1.347656 2.015625 -1.109375 C 2.210938 -0.867188 2.488281 -0.75 2.84375 -0.75 Z M 2.84375 -0.75 "/></g></g></g><g fill="#01b4e7" fill-opacity="1"><g transform="translate(197.306642, 216.887081)"><g/></g></g><g fill="#01b4e7" fill-opacity="1"><g transform="translate(200.68258, 216.887081)"><g><path d="M 5.984375 -8.453125 C 5.242188 -8.453125 4.582031 -8.242188 4 -7.828125 C 3.414062 -7.421875 2.953125 -6.820312 2.609375 -6.03125 C 2.273438 -5.238281 2.109375 -4.375 2.109375 -3.4375 C 2.109375 -2.644531 2.3125 -2.007812 2.71875 -1.53125 C 3.132812 -1.0625 3.707031 -0.828125 4.4375 -0.828125 C 5.019531 -0.828125 5.695312 -0.945312 6.46875 -1.1875 L 6.46875 -0.25 C 6.101562 -0.113281 5.753906 -0.0195312 5.421875 0.03125 C 5.097656 0.09375 4.703125 0.125 4.234375 0.125 C 3.210938 0.125 2.410156 -0.1875 1.828125 -0.8125 C 1.242188 -1.445312 0.953125 -2.3125 0.953125 -3.40625 C 0.953125 -4.507812 1.175781 -5.535156 1.625 -6.484375 C 2.070312 -7.441406 2.671875 -8.164062 3.421875 -8.65625 C 4.171875 -9.15625 5.023438 -9.40625 5.984375 -9.40625 C 6.816406 -9.40625 7.550781 -9.238281 8.1875 -8.90625 L 7.75 -8.015625 C 7.164062 -8.304688 6.578125 -8.453125 5.984375 -8.453125 Z M 5.984375 -8.453125 "/></g></g></g><g fill="#01b4e7" fill-opacity="1"><g transform="translate(208.284787, 216.887081)"><g><path d="M 1.421875 0 L 0.359375 0 L 2.46875 -9.875 L 3.53125 -9.875 Z M 1.421875 0 "/></g></g></g><g fill="#01b4e7" fill-opacity="1"><g transform="translate(211.584576, 216.887081)"><g><path d="M 2.859375 -6.953125 L 1.90625 -2.546875 C 1.832031 -2.171875 1.796875 -1.875 1.796875 -1.65625 C 1.796875 -1.050781 2.109375 -0.75 2.734375 -0.75 C 3.097656 -0.75 3.460938 -0.875 3.828125 -1.125 C 4.191406 -1.382812 4.507812 -1.75 4.78125 -2.21875 C 5.050781 -2.695312 5.257812 -3.269531 5.40625 -3.9375 L 6.046875 -6.953125 L 7.09375 -6.953125 L 5.625 0 L 4.75 0 L 4.890625 -1.28125 L 4.8125 -1.28125 C 4.394531 -0.757812 4 -0.394531 3.625 -0.1875 C 3.25 0.0195312 2.859375 0.125 2.453125 0.125 C 1.910156 0.125 1.484375 -0.0195312 1.171875 -0.3125 C 0.867188 -0.601562 0.71875 -1.023438 0.71875 -1.578125 C 0.71875 -1.835938 0.765625 -2.203125 0.859375 -2.671875 L 1.78125 -6.953125 Z M 2.859375 -6.953125 "/></g></g></g><g fill="#01b4e7" fill-opacity="1"><g transform="translate(219.085251, 216.887081)"><g><path d="M -0.859375 3.125 C -1.148438 3.125 -1.410156 3.078125 -1.640625 2.984375 L -1.640625 2.09375 C -1.378906 2.1875 -1.125 2.234375 -0.875 2.234375 C -0.351562 2.234375 0 1.800781 0.1875 0.9375 L 1.859375 -6.953125 L 2.90625 -6.953125 L 1.21875 1.03125 C 1.070312 1.75 0.832031 2.273438 0.5 2.609375 C 0.164062 2.953125 -0.285156 3.125 -0.859375 3.125 Z M 2.15625 -8.734375 C 2.15625 -8.972656 2.222656 -9.164062 2.359375 -9.3125 C 2.492188 -9.46875 2.671875 -9.546875 2.890625 -9.546875 C 3.253906 -9.546875 3.4375 -9.351562 3.4375 -8.96875 C 3.4375 -8.738281 3.363281 -8.539062 3.21875 -8.375 C 3.082031 -8.21875 2.921875 -8.140625 2.734375 -8.140625 C 2.566406 -8.140625 2.425781 -8.191406 2.3125 -8.296875 C 2.207031 -8.398438 2.15625 -8.546875 2.15625 -8.734375 Z M 2.15625 -8.734375 "/></g></g></g><g fill="#01b4e7" fill-opacity="1"><g transform="translate(222.38504, 216.887081)"><g><path d="M 0.34375 -2.984375 L 0.578125 -3.984375 L 3.609375 -3.984375 L 3.390625 -2.984375 Z M 0.34375 -2.984375 "/></g></g></g><g fill="#01b4e7" fill-opacity="1"><g transform="translate(226.439979, 216.887081)"><g><path d="M 7.234375 0 L 6.078125 0 L 3.15625 -7.765625 L 3.125 -7.765625 C 2.988281 -6.828125 2.832031 -5.941406 2.65625 -5.109375 L 1.5625 0 L 0.53125 0 L 2.5 -9.28125 L 3.640625 -9.28125 L 6.546875 -1.53125 L 6.59375 -1.53125 C 6.71875 -2.476562 6.867188 -3.335938 7.046875 -4.109375 L 8.15625 -9.28125 L 9.1875 -9.28125 Z M 7.234375 0 "/></g></g></g><g fill="#01b4e7" fill-opacity="1"><g transform="translate(235.565165, 216.887081)"><g><path d="M 4.0625 -7.078125 C 4.445312 -7.078125 4.789062 -6.972656 5.09375 -6.765625 C 5.394531 -6.554688 5.632812 -6.253906 5.8125 -5.859375 L 5.875 -5.859375 L 6.296875 -6.953125 L 7.109375 -6.953125 L 5.625 0 L 4.78125 0 L 4.953125 -1.328125 L 4.90625 -1.328125 C 4.144531 -0.359375 3.34375 0.125 2.5 0.125 C 1.914062 0.125 1.457031 -0.0820312 1.125 -0.5 C 0.789062 -0.914062 0.625 -1.488281 0.625 -2.21875 C 0.625 -3.101562 0.773438 -3.921875 1.078125 -4.671875 C 1.378906 -5.421875 1.789062 -6.007812 2.3125 -6.4375 C 2.84375 -6.863281 3.425781 -7.078125 4.0625 -7.078125 Z M 2.84375 -0.75 C 3.257812 -0.75 3.671875 -0.945312 4.078125 -1.34375 C 4.484375 -1.738281 4.8125 -2.25 5.0625 -2.875 C 5.320312 -3.5 5.453125 -4.128906 5.453125 -4.765625 C 5.453125 -5.203125 5.332031 -5.546875 5.09375 -5.796875 C 4.851562 -6.054688 4.539062 -6.1875 4.15625 -6.1875 C 3.71875 -6.1875 3.304688 -6.003906 2.921875 -5.640625 C 2.546875 -5.273438 2.25 -4.78125 2.03125 -4.15625 C 1.820312 -3.539062 1.71875 -2.890625 1.71875 -2.203125 C 1.71875 -1.710938 1.816406 -1.347656 2.015625 -1.109375 C 2.210938 -0.867188 2.488281 -0.75 2.84375 -0.75 Z M 2.84375 -0.75 "/></g></g></g><g fill="#01b4e7" fill-opacity="1"><g transform="translate(242.907202, 216.887081)"><g><path d="M 3.453125 0.125 C 3.046875 0.125 2.6875 0.0195312 2.375 -0.1875 C 2.070312 -0.40625 1.832031 -0.703125 1.65625 -1.078125 L 1.59375 -1.078125 L 1.578125 -0.84375 C 1.566406 -0.726562 1.539062 -0.578125 1.5 -0.390625 C 1.46875 -0.203125 1.226562 0.96875 0.78125 3.125 L -0.265625 3.125 L 1.859375 -6.953125 L 2.75 -6.953125 L 2.578125 -5.625 L 2.625 -5.625 C 3.382812 -6.59375 4.171875 -7.078125 4.984375 -7.078125 C 5.566406 -7.078125 6.023438 -6.867188 6.359375 -6.453125 C 6.691406 -6.035156 6.859375 -5.457031 6.859375 -4.71875 C 6.859375 -3.820312 6.710938 -3 6.421875 -2.25 C 6.128906 -1.5 5.722656 -0.914062 5.203125 -0.5 C 4.691406 -0.0820312 4.109375 0.125 3.453125 0.125 Z M 4.640625 -6.1875 C 4.234375 -6.1875 3.816406 -5.984375 3.390625 -5.578125 C 2.972656 -5.179688 2.640625 -4.675781 2.390625 -4.0625 C 2.148438 -3.457031 2.03125 -2.835938 2.03125 -2.203125 C 2.03125 -1.734375 2.144531 -1.375 2.375 -1.125 C 2.613281 -0.875 2.953125 -0.75 3.390625 -0.75 C 3.816406 -0.75 4.207031 -0.921875 4.5625 -1.265625 C 4.925781 -1.609375 5.21875 -2.097656 5.4375 -2.734375 C 5.65625 -3.367188 5.765625 -4.039062 5.765625 -4.75 C 5.765625 -5.707031 5.390625 -6.1875 4.640625 -6.1875 Z M 4.640625 -6.1875 "/></g></g></g><g fill="#01b4e7" fill-opacity="1"><g transform="translate(250.407877, 216.887081)"><g><path d="M 4.078125 -7.046875 C 4.878906 -7.046875 5.515625 -6.804688 5.984375 -6.328125 C 6.453125 -5.859375 6.6875 -5.207031 6.6875 -4.375 C 6.6875 -3.570312 6.53125 -2.816406 6.21875 -2.109375 C 5.914062 -1.398438 5.503906 -0.851562 4.984375 -0.46875 C 4.460938 -0.0820312 3.875 0.109375 3.21875 0.109375 C 2.40625 0.109375 1.769531 -0.128906 1.3125 -0.609375 C 0.851562 -1.085938 0.625 -1.742188 0.625 -2.578125 C 0.625 -3.378906 0.773438 -4.132812 1.078125 -4.84375 C 1.390625 -5.550781 1.804688 -6.09375 2.328125 -6.46875 C 2.859375 -6.851562 3.441406 -7.046875 4.078125 -7.046875 Z M 5.578125 -4.515625 C 5.578125 -5.003906 5.441406 -5.398438 5.171875 -5.703125 C 4.910156 -6.003906 4.554688 -6.15625 4.109375 -6.15625 C 3.648438 -6.15625 3.234375 -6 2.859375 -5.6875 C 2.492188 -5.375 2.210938 -4.9375 2.015625 -4.375 C 1.816406 -3.820312 1.71875 -3.203125 1.71875 -2.515625 C 1.71875 -1.960938 1.847656 -1.535156 2.109375 -1.234375 C 2.378906 -0.929688 2.769531 -0.78125 3.28125 -0.78125 C 3.71875 -0.78125 4.109375 -0.929688 4.453125 -1.234375 C 4.804688 -1.546875 5.082031 -1.988281 5.28125 -2.5625 C 5.476562 -3.132812 5.578125 -3.785156 5.578125 -4.515625 Z M 5.578125 -4.515625 "/></g></g></g><g fill="#01b4e7" fill-opacity="1"><g transform="translate(257.699147, 216.887081)"><g><path d="M 3.21875 0.125 C 2.394531 0.125 1.753906 -0.0976562 1.296875 -0.546875 C 0.847656 -1.003906 0.625 -1.644531 0.625 -2.46875 C 0.625 -3.3125 0.78125 -4.09375 1.09375 -4.8125 C 1.40625 -5.53125 1.835938 -6.085938 2.390625 -6.484375 C 2.941406 -6.878906 3.5625 -7.078125 4.25 -7.078125 C 4.832031 -7.078125 5.398438 -6.972656 5.953125 -6.765625 L 5.65625 -5.859375 C 5.144531 -6.078125 4.679688 -6.1875 4.265625 -6.1875 C 3.796875 -6.1875 3.363281 -6.023438 2.96875 -5.703125 C 2.570312 -5.378906 2.265625 -4.925781 2.046875 -4.34375 C 1.828125 -3.769531 1.71875 -3.144531 1.71875 -2.46875 C 1.71875 -1.925781 1.859375 -1.503906 2.140625 -1.203125 C 2.421875 -0.898438 2.804688 -0.75 3.296875 -0.75 C 3.609375 -0.75 3.898438 -0.789062 4.171875 -0.875 C 4.441406 -0.96875 4.707031 -1.070312 4.96875 -1.1875 L 4.96875 -0.265625 C 4.4375 -0.00390625 3.851562 0.125 3.21875 0.125 Z M 3.21875 0.125 "/></g></g></g><g fill="#01b4e7" fill-opacity="1"><g transform="translate(263.549927, 216.887081)"><g><path d="M 4.0625 -7.078125 C 4.445312 -7.078125 4.789062 -6.972656 5.09375 -6.765625 C 5.394531 -6.554688 5.632812 -6.253906 5.8125 -5.859375 L 5.875 -5.859375 L 6.296875 -6.953125 L 7.109375 -6.953125 L 5.625 0 L 4.78125 0 L 4.953125 -1.328125 L 4.90625 -1.328125 C 4.144531 -0.359375 3.34375 0.125 2.5 0.125 C 1.914062 0.125 1.457031 -0.0820312 1.125 -0.5 C 0.789062 -0.914062 0.625 -1.488281 0.625 -2.21875 C 0.625 -3.101562 0.773438 -3.921875 1.078125 -4.671875 C 1.378906 -5.421875 1.789062 -6.007812 2.3125 -6.4375 C 2.84375 -6.863281 3.425781 -7.078125 4.0625 -7.078125 Z M 2.84375 -0.75 C 3.257812 -0.75 3.671875 -0.945312 4.078125 -1.34375 C 4.484375 -1.738281 4.8125 -2.25 5.0625 -2.875 C 5.320312 -3.5 5.453125 -4.128906 5.453125 -4.765625 C 5.453125 -5.203125 5.332031 -5.546875 5.09375 -5.796875 C 4.851562 -6.054688 4.539062 -6.1875 4.15625 -6.1875 C 3.71875 -6.1875 3.304688 -6.003906 2.921875 -5.640625 C 2.546875 -5.273438 2.25 -4.78125 2.03125 -4.15625 C 1.820312 -3.539062 1.71875 -2.890625 1.71875 -2.203125 C 1.71875 -1.710938 1.816406 -1.347656 2.015625 -1.109375 C 2.210938 -0.867188 2.488281 -0.75 2.84375 -0.75 Z M 2.84375 -0.75 "/></g></g></g></svg>