<svg width="1440" height="923" viewBox="0 -500 1440 900" fill="none" xmlns="http://www.w3.org/2000/svg">
<path d="M484.431 -40C484.029 -38.3255 482.703 -36.9688 481.845 -35.4403C475.99 -24.7883 473.53 -13.5825 473.2 -2.0847C472.633 17.532 475.319 36.934 480.012 56.19C483.314 69.7057 487.331 83.1098 489.89 96.7372C494.275 120.008 485.686 139.826 463.835 155.905C449.115 166.737 431.122 172.542 411.224 174.86C384.806 177.939 359.301 174.457 334.215 168.244C316.887 163.955 300.341 158.095 283.497 152.835C268.629 148.198 253.596 143.939 237.677 142.007C224.536 140.414 211.578 140.796 199.07 144.678C190.194 147.443 183.278 151.792 180.983 159.498C179.635 164.084 180.422 168.583 182.127 173.019C185.501 181.786 191.317 189.638 197.397 197.375C204.908 206.932 212.777 216.331 219.298 226.339C227.937 239.592 234.573 253.361 236.763 268.251C238.876 282.638 236.433 296.287 225.054 308.287C216.436 317.376 204.831 323.289 191.46 327.316C176.553 331.802 160.964 333.335 145.161 333.55C121.147 333.88 97.42 331.558 73.7587 328.677C49.4646 325.714 25.4126 321.55 1.01939 318.995C-13.9203 317.424 -28.8874 316.058 -43.9866 317.565C-52.4827 318.42 -60.5275 320.322 -67.2463 324.675C-76.3091 330.553 -79.6877 338.492 -80.0564 347.357C-80.5021 357.975 -76.8538 367.927 -71.6649 377.635C-64.1318 391.751 -52.9119 403.996 -40.7896 415.846C-22.2622 433.969 0.0454215 448.549 26.447 459.111C69.9563 476.512 112.371 495.459 155.363 513.595C178.853 523.508 203.753 531.043 228.24 539.304C261.178 550.419 293.622 562.325 324.64 576.528C367.869 596.316 401.165 623.807 427.82 656.579C447.503 680.777 461.034 706.859 467.505 735.118C473.888 763.004 472.771 790.731 464.506 818.295C453.682 854.403 431.688 886.17 402.733 915.236C400.252 917.722 398.084 920.882 394.793 922.269C391.508 923.656 386.891 922.643 382.858 922.647C312.964 922.664 243.064 922.664 173.175 922.647H153.987L153.899 922.351C158.835 920.693 163.881 919.221 168.679 917.362C185.853 910.711 203.742 905.207 220.272 897.543C227.607 894.113 234.391 890.111 240.626 885.543C250.586 878.317 260.606 871.143 270.527 863.887C286.837 851.968 298.618 837.706 306.713 821.489C312.1 810.666 317.613 799.889 320.447 788.417C322.395 780.521 322.637 772.531 322.302 764.537C321.834 751.82 319.88 739.244 316.436 726.806C311.588 709.547 301.254 694.404 287.58 680.476C268.976 661.516 247.752 644.544 224.789 628.792C209.41 618.243 194.459 607.303 179.31 596.527C160.106 582.865 138.519 571.925 115.777 562.244C94.6301 553.236 72.7462 545.349 51.6821 536.221C26.9368 525.5 2.20245 514.767 -21.6845 502.878C-61.4025 483.116 -94.4898 458.042 -121.882 428.186C-139.727 408.728 -157.247 389.141 -170.773 367.575C-177.123 357.443 -183.137 347.207 -188.161 336.607C-198.346 315.118 -193.884 295.154 -178.196 276.353C-171.411 268.225 -163.091 261.206 -153.241 255.289C-137.68 245.912 -119.873 242.679 -100.587 243.542C-77.1345 244.594 -53.6878 245.711 -30.2356 246.767C-4.97848 247.926 20.2896 249.102 45.6072 248.673C57.9441 248.463 70.1379 247.282 81.9136 244.169C87.2456 242.752 92.1705 240.734 96.6991 238.12C105.245 233.221 109.504 226.583 110.137 218.357C110.83 209.023 108.299 200.063 104.964 191.201C99.7531 177.226 93.238 163.564 88.148 149.551C84.4833 139.47 80.7415 129.44 78.3258 119.119C72.8782 95.8269 89.155 80.9674 111.011 74.4328C126.001 69.9505 141.579 68.9243 157.459 69.5941C175.667 70.3626 193.43 73.265 211.165 76.279C237.077 80.6754 262.235 87.1671 287.569 93.1693C302.041 96.5955 316.59 99.8971 331.689 101.305C343.063 102.37 354.376 102.263 365.464 99.691C385.312 95.0756 397.693 84.883 402.744 69.2163C408.286 51.9352 412.589 34.4824 414.487 16.7334C415.213 9.8768 414.272 3.02019 413.519 -3.7806C412.226 -15.4759 411.824 -27.1197 415.681 -38.6132C415.764 -39.0683 415.786 -39.5234 415.747 -39.9828L484.431 -40Z" fill="#0C3C7C"/>
<path d="M442.595 -40C442.507 -36.4365 441.252 -33.0017 440.399 -29.5412C436.217 -12.5221 436.168 4.48848 439.766 21.572C445.098 46.9076 439.739 70.9293 424.326 93.5557C417.668 103.34 408.737 111.751 397.22 118.337C378.61 128.981 357.612 131.716 335.194 129.496C315.154 127.508 296.599 121.832 278.341 115.439C259.819 108.943 241.815 101.606 223.205 95.2516C206.147 89.434 188.758 84.3634 170.297 81.9419C157.894 80.3104 145.458 80.2074 133.176 82.8178C105.349 88.7341 91.7249 106.243 97.7998 128.217C100.573 138.25 106.224 147.352 112.629 156.21C121.12 167.974 130.915 179.132 139.064 191.051C146.3 201.587 152.204 212.492 154.675 224.376C156.485 233.062 156.271 241.666 152.089 249.974C146.405 261.27 135.493 268.35 121.516 272.905C109.152 276.937 96.138 278.753 82.8712 279.586C60.4315 280.998 38.1568 279.526 15.9592 277.048C-9.00073 274.266 -33.7075 270.286 -58.651 267.409C-73.9868 265.641 -89.3447 264.061 -104.912 264.627C-113.039 264.924 -121.023 265.838 -128.628 268.178C-144.855 273.184 -153.863 283.055 -158.557 295.677C-163.025 307.669 -162.056 319.742 -158.793 331.777C-153.494 351.346 -142.715 369.129 -129.497 386.093C-110.068 411.029 -85.5368 432.646 -58.4529 452.606C-24.0394 477.972 14.4735 498.988 54.9123 517.987C86.0957 532.645 117.846 546.555 148.82 561.484C179.393 576.214 208.981 592.018 235.998 610.613C273.103 636.159 302.399 666.08 320.888 702.136C330.71 721.242 336.851 740.992 337.698 761.626C339.156 796.897 325.218 828.088 296.648 855.356C277.653 873.487 254.256 887.501 228.735 899.505C211.033 907.839 192.643 915.155 174.006 922.089C172.988 922.475 171.909 922.66 170.781 922.651C97.9539 922.651 25.1266 922.651 -47.6952 922.651H-49.1424L-49.1754 922.385C-42.7704 920.539 -36.3268 918.757 -29.9437 916.833C0.260197 907.783 28.6593 895.864 56.7337 883.418C78.9588 873.556 100.667 863.002 120.306 850.105C156.287 826.5 183.966 798.146 201.024 763.803C207.544 750.682 211.429 737.076 211.825 722.972C212.629 693.88 200.837 668.171 176.988 645.884C158.94 629.015 138.14 614.331 116.745 600.107C89.6229 582.075 59.507 567.559 28.8794 553.519C-22.8068 529.824 -72.2535 503.436 -119.741 474.872C-146.236 458.931 -168.775 439.962 -189.041 419.268C-199.595 408.496 -210.958 398.183 -219.944 386.509C-241.773 358.168 -255.981 327.848 -258.556 294.595C-259.701 279.697 -258.908 264.863 -252.872 250.541C-244.519 230.722 -227.219 216.932 -204.124 207.078C-182.416 197.8 -159.371 195.58 -135.105 197.989C-112.725 200.213 -91.1715 204.974 -69.5187 209.654C-47.145 214.493 -24.9033 219.714 -2.26551 223.797C10.9738 226.184 24.3672 227.399 37.9422 225.669C45.866 224.656 52.8048 221.959 58.8907 217.898C64.3218 214.27 66.9741 209.641 67.0126 204.081C67.0621 197.749 65.1802 191.691 62.6655 185.74C56.9813 172.203 49.3987 159.237 42.4434 146.086C35.1084 132.227 28.4887 118.187 24.967 103.379C21.0987 87.1971 21.792 71.1526 27.7679 55.327C38.2779 27.5013 66.831 9.32718 103.93 6.82411C128.873 5.14967 152.947 8.3955 176.526 14.6167C199.786 20.7606 222.104 28.6648 244.296 36.8008C261.355 43.0564 278.732 48.7237 297.171 52.1284C310.554 54.5971 324.046 55.4257 337.577 52.9956C360.947 48.801 374.791 36.8609 380.993 19.3738C386.677 3.2992 385.224 -12.8097 379.303 -28.7512C377.922 -32.4694 376.123 -36.1102 375.452 -39.9786L442.595 -40Z" fill="#F7A81B"/>
<path d="M914.569 -40C914.971 -38.3255 916.297 -36.9688 917.155 -35.4403C923.01 -24.7883 925.47 -13.5825 925.8 -2.0847C926.367 17.532 923.681 36.934 918.988 56.19C915.686 69.7057 911.669 83.1098 909.11 96.7372C904.725 120.008 913.314 139.826 935.165 155.905C949.885 166.737 967.878 172.542 987.776 174.86C1014.19 177.939 1039.7 174.457 1064.79 168.244C1082.11 163.955 1098.66 158.095 1115.5 152.835C1130.37 148.198 1145.4 143.939 1161.32 142.007C1174.46 140.414 1187.42 140.796 1199.93 144.678C1208.81 147.443 1215.72 151.792 1218.02 159.498C1219.37 164.084 1218.58 168.583 1216.87 173.019C1213.5 181.786 1207.68 189.638 1201.6 197.375C1194.09 206.932 1186.22 216.331 1179.7 226.339C1171.06 239.592 1164.43 253.361 1162.24 268.251C1160.12 282.638 1162.57 296.287 1173.95 308.287C1182.56 317.376 1194.17 323.289 1207.54 327.316C1222.45 331.802 1238.04 333.335 1253.84 333.55C1277.85 333.88 1301.58 331.558 1325.24 328.677C1349.54 325.714 1373.59 321.55 1397.98 318.995C1412.92 317.424 1427.89 316.058 1442.99 317.565C1451.48 318.42 1459.53 320.322 1466.25 324.675C1475.31 330.553 1478.69 338.492 1479.06 347.357C1479.5 357.975 1475.85 367.927 1470.66 377.635C1463.13 391.751 1451.91 403.996 1439.79 415.846C1421.26 433.969 1398.95 448.549 1372.55 459.111C1329.04 476.512 1286.63 495.459 1243.64 513.595C1220.15 523.508 1195.25 531.043 1170.76 539.304C1137.82 550.419 1105.38 562.325 1074.36 576.528C1031.13 596.316 997.835 623.807 971.18 656.579C951.497 680.777 937.966 706.859 931.495 735.118C925.112 763.004 926.229 790.731 934.494 818.295C945.318 854.403 967.312 886.17 996.267 915.236C998.748 917.722 1000.92 920.882 1004.21 922.269C1007.49 923.656 1012.11 922.643 1016.14 922.647C1086.04 922.664 1155.94 922.664 1225.83 922.647H1245.01L1245.1 922.351C1240.17 920.693 1235.12 919.221 1230.32 917.362C1213.15 910.711 1195.26 905.207 1178.73 897.543C1171.39 894.113 1164.61 890.111 1158.37 885.543C1148.41 878.317 1138.39 871.143 1128.47 863.887C1112.16 851.968 1100.38 837.706 1092.29 821.489C1086.9 810.666 1081.39 799.889 1078.55 788.417C1076.6 780.521 1076.36 772.531 1076.7 764.537C1077.17 751.82 1079.12 739.244 1082.56 726.806C1087.41 709.547 1097.75 694.404 1111.42 680.476C1130.02 661.516 1151.25 644.544 1174.21 628.792C1189.59 618.243 1204.54 607.303 1219.69 596.527C1238.89 582.865 1260.48 571.925 1283.22 562.244C1304.37 553.236 1326.25 545.349 1347.32 536.221C1372.06 525.5 1396.8 514.767 1420.68 502.878C1460.4 483.116 1493.49 458.042 1520.88 428.186C1538.73 408.728 1556.25 389.141 1569.77 367.575C1576.12 357.443 1582.14 347.207 1587.16 336.607C1597.35 315.118 1592.88 295.154 1577.2 276.353C1570.41 268.225 1562.09 261.206 1552.24 255.289C1536.68 245.912 1518.87 242.679 1499.59 243.542C1476.13 244.594 1452.69 245.711 1429.24 246.767C1403.98 247.926 1378.71 249.102 1353.39 248.673C1341.06 248.463 1328.86 247.282 1317.09 244.169C1311.75 242.752 1306.83 240.734 1302.3 238.12C1293.76 233.221 1289.5 226.583 1288.86 218.357C1288.17 209.023 1290.7 200.063 1294.04 191.201C1299.25 177.226 1305.76 163.564 1310.85 149.551C1314.52 139.47 1318.26 129.44 1320.67 119.119C1326.12 95.8269 1309.84 80.9674 1287.99 74.4328C1273 69.9505 1257.42 68.9243 1241.54 69.5941C1223.33 70.3626 1205.57 73.265 1187.84 76.279C1161.92 80.6754 1136.77 87.1671 1111.43 93.1693C1096.96 96.5955 1082.41 99.8971 1067.31 101.305C1055.94 102.37 1044.62 102.263 1033.54 99.691C1013.69 95.0756 1001.31 84.883 996.256 69.2163C990.714 51.9352 986.411 34.4824 984.513 16.7334C983.787 9.8768 984.728 3.02019 985.481 -3.7806C986.774 -15.4759 987.176 -27.1197 983.319 -38.6132C983.236 -39.0683 983.214 -39.5234 983.253 -39.9828L914.569 -40Z" fill="#0C3C7C"/>
<path d="M956.405 -40C956.493 -36.4365 957.748 -33.0017 958.601 -29.5412C962.783 -12.5221 962.832 4.48848 959.234 21.572C953.902 46.9076 959.261 70.9293 974.674 93.5557C981.332 103.34 990.263 111.751 1001.78 118.337C1020.39 128.981 1041.39 131.716 1063.81 129.496C1083.85 127.508 1102.4 121.832 1120.66 115.439C1139.18 108.943 1157.19 101.606 1175.8 95.2516C1192.85 89.434 1210.24 84.3634 1228.7 81.9419C1241.11 80.3104 1253.54 80.2074 1265.82 82.8178C1293.65 88.7341 1307.28 106.243 1301.2 128.217C1298.43 138.25 1292.78 147.352 1286.37 156.21C1277.88 167.974 1268.09 179.132 1259.94 191.051C1252.7 201.587 1246.8 212.492 1244.32 224.376C1242.51 233.062 1242.73 241.666 1246.91 249.974C1252.6 261.27 1263.51 268.35 1277.48 272.905C1289.85 276.937 1302.86 278.753 1316.13 279.586C1338.57 280.998 1360.84 279.526 1383.04 277.048C1408 274.266 1432.71 270.286 1457.65 267.409C1472.99 265.641 1488.34 264.061 1503.91 264.627C1512.04 264.924 1520.02 265.838 1527.63 268.178C1543.86 273.184 1552.86 283.055 1557.56 295.677C1562.02 307.669 1561.06 319.742 1557.79 331.777C1552.49 351.346 1541.71 369.129 1528.5 386.093C1509.07 411.029 1484.54 432.646 1457.45 452.606C1423.04 477.972 1384.53 498.988 1344.09 517.987C1312.9 532.645 1281.15 546.555 1250.18 561.484C1219.61 576.214 1190.02 592.018 1163 610.613C1125.9 636.159 1096.6 666.08 1078.11 702.136C1068.29 721.242 1062.15 740.992 1061.3 761.626C1059.84 796.897 1073.78 828.088 1102.35 855.356C1121.35 873.487 1144.74 887.501 1170.27 899.505C1187.97 907.839 1206.36 915.155 1224.99 922.089C1226.01 922.475 1227.09 922.66 1228.22 922.651C1301.05 922.651 1373.87 922.651 1446.7 922.651H1448.14L1448.18 922.385C1441.77 920.539 1435.33 918.757 1428.94 916.833C1398.74 907.783 1370.34 895.864 1342.27 883.418C1320.04 873.556 1298.33 863.002 1278.69 850.105C1242.71 826.5 1215.03 798.146 1197.98 763.803C1191.46 750.682 1187.57 737.076 1187.17 722.972C1186.37 693.88 1198.16 668.171 1222.01 645.884C1240.06 629.015 1260.86 614.331 1282.25 600.107C1309.38 582.075 1339.49 567.559 1370.12 553.519C1421.81 529.824 1471.25 503.436 1518.74 474.872C1545.24 458.931 1567.78 439.962 1588.04 419.268C1598.6 408.496 1609.96 398.183 1618.94 386.509C1640.77 358.168 1654.98 327.848 1657.56 294.595C1658.7 279.697 1657.91 264.863 1651.87 250.541C1643.52 230.722 1626.22 216.932 1603.12 207.078C1581.42 197.8 1558.37 195.58 1534.1 197.989C1511.73 200.213 1490.17 204.974 1468.52 209.654C1446.14 214.493 1423.9 219.714 1401.27 223.797C1388.03 226.184 1374.63 227.399 1361.06 225.669C1353.13 224.656 1346.2 221.959 1340.11 217.898C1334.68 214.27 1332.03 209.641 1331.99 204.081C1331.94 197.749 1333.82 191.691 1336.33 185.74C1342.02 172.203 1349.6 159.237 1356.56 146.086C1363.89 132.227 1370.51 118.187 1374.03 103.379C1377.9 87.1971 1377.21 71.1526 1371.23 55.327C1360.72 27.5013 1332.17 9.32718 1295.07 6.82411C1270.13 5.14967 1246.05 8.3955 1222.47 14.6167C1199.21 20.7606 1176.9 28.6648 1154.7 36.8008C1137.65 43.0564 1120.27 48.7237 1101.83 52.1284C1088.45 54.5971 1074.95 55.4257 1061.42 52.9956C1038.05 48.801 1024.21 36.8609 1018.01 19.3738C1012.32 3.2992 1013.78 -12.8097 1019.7 -28.7512C1021.08 -32.4694 1022.88 -36.1102 1023.55 -39.9786L956.405 -40Z" fill="#F7A81B"/>
</svg>
