<svg xmlns="http://www.w3.org/2000/svg" xmlns:xlink="http://www.w3.org/1999/xlink" width="1920" zoomAndPan="magnify" viewBox="0 0 1440 809.999993" height="1080" preserveAspectRatio="xMidYMid meet" version="1.0"><defs><clipPath id="3dc1627de1"><path d="M 1196 616 L 1420.589844 616 L 1420.589844 809.996094 L 1196 809.996094 Z M 1196 616 " clip-rule="nonzero"/></clipPath><clipPath id="347a318031"><path d="M 1002 760 L 1190 760 L 1190 809.996094 L 1002 809.996094 Z M 1002 760 " clip-rule="nonzero"/></clipPath><clipPath id="7f8a549441"><path d="M 1157 54 L 1420.589844 54 L 1420.589844 388 L 1157 388 Z M 1157 54 " clip-rule="nonzero"/></clipPath><clipPath id="3e57c3aaa5"><path d="M 909 0 L 1359 0 L 1359 809.996094 L 909 809.996094 Z M 909 0 " clip-rule="nonzero"/></clipPath><clipPath id="889e0ba4e5"><path d="M 940 0 L 1402 0 L 1402 809.996094 L 940 809.996094 Z M 940 0 " clip-rule="nonzero"/></clipPath></defs><g clip-path="url(#3dc1627de1)"><path fill="#ffffff" d="M 1226.667969 625.445312 C 1223.539062 630.972656 1222.730469 636.933594 1223.53125 643.132812 C 1224.382812 649.75 1227.28125 655.640625 1230.472656 661.378906 C 1236.015625 671.335938 1242.464844 680.773438 1247.765625 690.871094 C 1255.683594 705.984375 1263.183594 721.273438 1268.203125 737.65625 C 1270.457031 745.007812 1272.414062 752.410156 1272.210938 760.207031 C 1271.941406 770.808594 1267.269531 779.300781 1259.566406 786.222656 C 1253.980469 791.238281 1247.269531 794.578125 1240.738281 798.175781 C 1229.546875 804.339844 1217.722656 808.191406 1204.925781 809.023438 C 1202.253906 809.191406 1199.542969 809.320312 1196.917969 809.984375 L 1287.382812 809.984375 C 1288.835938 808.75 1290.296875 807.523438 1291.742188 806.28125 C 1299.542969 799.570312 1305.8125 791.792969 1308.875 781.777344 C 1311.671875 772.640625 1311.375 763.398438 1309.589844 754.15625 C 1306.535156 738.382812 1300.839844 723.484375 1294.429688 708.832031 C 1291.464844 702.050781 1288.175781 695.425781 1285.878906 688.382812 C 1284.949219 685.53125 1284.21875 682.621094 1284.367188 679.59375 C 1284.558594 675.664062 1286.421875 673.246094 1289.707031 672.8125 C 1291.34375 672.597656 1292.976562 672.640625 1294.597656 672.9375 C 1300.023438 673.953125 1304.808594 676.5 1309.515625 679.164062 C 1322 686.21875 1334.269531 693.664062 1347.113281 700.050781 C 1364.101562 708.492188 1381.402344 716.046875 1400.640625 717.628906 C 1406.914062 718.1875 1413.15625 717.953125 1419.371094 716.921875 C 1420.304688 716.78125 1420.574219 716.417969 1420.574219 715.515625 C 1420.550781 697.269531 1420.550781 679.03125 1420.574219 660.792969 C 1420.574219 659.550781 1420.179688 659.476562 1419.21875 659.925781 C 1416.503906 661.214844 1413.625 662.027344 1410.742188 662.785156 C 1403.082031 664.789062 1395.335938 665.726562 1387.449219 664.585938 C 1382.703125 663.910156 1377.980469 663.097656 1373.273438 662.214844 C 1362.273438 660.152344 1351.367188 657.632812 1341.09375 653.128906 C 1325.695312 646.378906 1310.601562 638.9375 1295.175781 632.234375 C 1286.945312 628.660156 1278.921875 624.605469 1270.398438 621.726562 C 1261.152344 618.617188 1251.75 616.261719 1241.886719 616.84375 C 1235.445312 617.234375 1230.019531 619.539062 1226.667969 625.445312 Z M 1226.667969 625.445312 " fill-opacity="1" fill-rule="nonzero"/></g><g clip-path="url(#347a318031)"><path fill="#ffffff" d="M 1086.53125 809.082031 C 1086.871094 809.34375 1087.332031 809.515625 1087.476562 810 L 1189.464844 810 C 1189.222656 809.871094 1188.96875 809.769531 1188.699219 809.703125 C 1182.710938 809.027344 1176.773438 807.976562 1170.832031 806.941406 C 1150.613281 803.417969 1131.136719 797.539062 1112.585938 788.710938 C 1101.273438 783.332031 1089.992188 777.902344 1078.675781 772.5625 C 1069.585938 768.273438 1060.34375 764.371094 1050.425781 762.363281 C 1041.554688 760.566406 1032.652344 759.921875 1023.773438 762.222656 C 1015.535156 764.359375 1009.089844 768.777344 1005.800781 776.96875 C 1002.980469 783.980469 1002.511719 791.308594 1002.960938 798.75 C 1003.191406 802.597656 1004.316406 806.273438 1005.167969 810 L 1036.339844 810 C 1035.824219 808.164062 1034.816406 806.515625 1035.496094 804.375 C 1036.851562 800.0625 1040.089844 797.808594 1043.917969 796.167969 C 1048.132812 794.359375 1052.484375 794.441406 1056.851562 795.589844 C 1067.5 798.375 1077.605469 802.421875 1086.53125 809.082031 Z M 1086.53125 809.082031 " fill-opacity="1" fill-rule="nonzero"/></g><g clip-path="url(#7f8a549441)"><path fill="#ffffff" d="M 1225.402344 273.277344 C 1250.117188 291.820312 1276.304688 307.988281 1303.957031 321.78125 C 1326.109375 332.875 1348.660156 343.160156 1370.632812 354.632812 C 1383.359375 361.28125 1395.75 368.449219 1407.359375 376.9375 C 1411.863281 380.230469 1416.167969 383.765625 1420.277344 387.539062 C 1420.433594 387.203125 1420.519531 387.109375 1420.519531 387.019531 C 1420.519531 373.863281 1420.53125 360.707031 1420.554688 347.546875 C 1420.550781 346.890625 1420.285156 346.359375 1419.757812 345.964844 C 1415.636719 342.261719 1411.304688 338.832031 1406.761719 335.664062 C 1393.828125 326.597656 1379.972656 319.113281 1365.960938 311.933594 C 1343.007812 300.171875 1319.683594 289.113281 1297.261719 276.339844 C 1280.578125 266.847656 1264.214844 256.808594 1249.144531 244.835938 C 1236.066406 234.445312 1224.46875 222.691406 1215.335938 208.597656 C 1207.433594 196.414062 1202.789062 183.285156 1202.898438 168.632812 C 1202.957031 159.816406 1206.089844 152.359375 1212.308594 146.148438 C 1218.527344 139.9375 1225.992188 135.257812 1233.78125 131.230469 C 1250.472656 122.582031 1268.492188 119.0625 1287.058594 117.761719 C 1296.691406 117.085938 1306.339844 117.109375 1315.992188 117.320312 C 1330.445312 117.660156 1344.855469 118.679688 1359.277344 119.523438 C 1366.488281 119.945312 1373.695312 120.398438 1380.898438 120.878906 C 1393.511719 121.726562 1406.121094 122.605469 1418.726562 123.511719 C 1420.296875 123.628906 1420.578125 123.140625 1420.574219 121.679688 C 1420.527344 101.136719 1420.527344 80.585938 1420.574219 60.027344 C 1420.574219 58.59375 1420.277344 58.136719 1418.746094 58.085938 C 1409.929688 57.792969 1401.144531 57.515625 1392.359375 56.953125 C 1374.730469 55.828125 1357.097656 54.871094 1339.4375 54.507812 C 1319.226562 54.085938 1299.019531 54.328125 1278.882812 56.386719 C 1268.070312 57.492188 1257.484375 59.621094 1247.210938 63.257812 C 1231.234375 68.921875 1216.292969 76.742188 1201.773438 85.378906 C 1193.679688 90.195312 1186.269531 95.890625 1180.261719 103.25 C 1172.226562 113.101562 1167.007812 124.441406 1162.746094 136.292969 C 1161.421875 139.898438 1160.363281 143.582031 1159.566406 147.339844 C 1158.769531 151.097656 1158.238281 154.890625 1157.980469 158.722656 C 1157.722656 162.554688 1157.738281 166.386719 1158.023438 170.21875 C 1158.3125 174.050781 1158.867188 177.839844 1159.695312 181.589844 C 1162.882812 196.507812 1169.03125 210.039062 1177.363281 222.703125 C 1190.347656 242.449219 1206.546875 259.101562 1225.402344 273.277344 Z M 1225.402344 273.277344 " fill-opacity="1" fill-rule="nonzero"/></g><g clip-path="url(#3e57c3aaa5)"><path fill="#0c3c7c" d="M 913.332031 809.988281 C 913.59375 808.578125 914.464844 807.4375 915.027344 806.15625 C 918.867188 797.199219 920.484375 787.78125 920.699219 778.117188 C 921.070312 761.625 919.308594 745.320312 916.226562 729.132812 C 914.066406 717.773438 911.429688 706.507812 909.75 695.050781 C 906.871094 675.492188 912.511719 658.835938 926.839844 645.316406 C 936.496094 636.210938 948.304688 631.335938 961.355469 629.386719 C 978.683594 626.796875 995.417969 629.722656 1011.875 634.949219 C 1023.242188 638.550781 1034.09375 643.476562 1045.144531 647.898438 C 1054.898438 651.796875 1064.757812 655.375 1075.203125 657 C 1083.820312 658.339844 1092.324219 658.019531 1100.527344 654.757812 C 1106.351562 652.429688 1110.890625 648.777344 1112.394531 642.296875 C 1113.277344 638.441406 1112.761719 634.660156 1111.640625 630.933594 C 1109.429688 623.5625 1105.613281 616.964844 1101.625 610.460938 C 1096.699219 602.425781 1091.539062 594.527344 1087.257812 586.113281 C 1081.59375 574.972656 1077.238281 563.398438 1075.804688 550.886719 C 1074.414062 538.789062 1076.019531 527.320312 1083.480469 517.234375 C 1089.136719 509.589844 1096.75 504.621094 1105.519531 501.238281 C 1115.296875 497.46875 1125.507812 496.175781 1135.890625 495.996094 C 1151.640625 495.71875 1167.207031 497.671875 1182.730469 500.097656 C 1198.667969 502.585938 1214.445312 506.085938 1230.445312 508.230469 C 1240.25 509.554688 1250.066406 510.699219 1259.972656 509.433594 C 1265.542969 508.71875 1270.824219 507.117188 1275.214844 503.460938 C 1281.15625 498.515625 1283.375 491.84375 1283.617188 484.394531 C 1283.90625 475.46875 1281.511719 467.101562 1278.113281 458.945312 C 1273.167969 447.078125 1265.808594 436.785156 1257.855469 426.820312 C 1245.703125 411.589844 1231.070312 399.335938 1213.746094 390.457031 C 1185.207031 375.832031 1157.382812 359.90625 1129.179688 344.660156 C 1113.769531 336.328125 1097.433594 329.992188 1081.375 323.050781 C 1059.738281 313.71875 1038.449219 303.710938 1018.101562 291.773438 C 989.742188 275.136719 967.902344 252.03125 950.414062 224.488281 C 937.503906 204.144531 928.628906 182.222656 924.382812 158.46875 C 920.195312 135.027344 920.929688 111.726562 926.351562 88.554688 C 933.453125 58.203125 947.878906 31.5 966.875 7.070312 C 968.5 4.980469 969.925781 2.324219 972.082031 1.160156 C 974.238281 -0.0078125 977.265625 0.84375 979.910156 0.839844 C 1025.765625 0.828125 1071.617188 0.828125 1117.464844 0.839844 L 1130.105469 0.839844 L 1130.160156 1.089844 C 1126.921875 2.480469 1123.613281 3.722656 1120.464844 5.285156 C 1109.203125 10.875 1097.464844 15.5 1086.621094 21.941406 C 1081.808594 24.828125 1077.359375 28.1875 1073.269531 32.03125 C 1066.734375 38.101562 1060.160156 44.132812 1053.652344 50.230469 C 1042.953125 60.25 1035.226562 72.238281 1029.917969 85.867188 C 1026.378906 94.96875 1022.761719 104.027344 1020.902344 113.667969 C 1019.625 120.304688 1019.46875 127.019531 1019.6875 133.738281 C 1019.992188 144.425781 1021.273438 154.996094 1023.527344 165.445312 C 1026.710938 179.953125 1033.488281 192.679688 1042.460938 204.390625 C 1054.667969 220.324219 1068.570312 234.59375 1083.648438 247.832031 C 1093.738281 256.699219 1103.546875 265.894531 1113.484375 274.953125 C 1126.082031 286.433594 1140.242188 295.632812 1155.164062 303.769531 C 1169.035156 311.339844 1183.390625 317.96875 1197.207031 325.640625 C 1213.441406 334.65625 1229.671875 343.675781 1245.355469 353.667969 C 1271.40625 370.277344 1293.113281 391.355469 1311.078125 416.453125 C 1322.789062 432.804688 1334.28125 449.269531 1343.152344 467.398438 C 1347.320312 475.914062 1351.269531 484.519531 1354.5625 493.425781 C 1361.242188 511.492188 1358.316406 528.269531 1348.019531 544.074219 C 1343.570312 550.90625 1338.113281 556.808594 1331.652344 561.777344 C 1321.445312 569.660156 1309.765625 572.378906 1297.109375 571.65625 C 1281.726562 570.769531 1266.347656 569.832031 1250.960938 568.941406 C 1234.390625 567.96875 1217.816406 566.980469 1201.207031 567.34375 C 1193.117188 567.519531 1185.113281 568.511719 1177.390625 571.125 C 1173.894531 572.316406 1170.660156 574.011719 1167.691406 576.210938 C 1162.085938 580.328125 1159.289062 585.910156 1158.875 592.824219 C 1158.421875 600.671875 1160.082031 608.199219 1162.25 615.648438 C 1165.671875 627.398438 1169.945312 638.878906 1173.285156 650.65625 C 1175.6875 659.132812 1178.140625 667.5625 1179.730469 676.238281 C 1183.304688 695.816406 1172.609375 708.308594 1158.289062 713.796875 C 1148.457031 717.570312 1138.238281 718.429688 1127.816406 717.867188 C 1115.875 717.21875 1104.222656 714.78125 1092.585938 712.25 C 1075.589844 708.554688 1059.085938 703.097656 1042.464844 698.050781 C 1032.972656 695.171875 1023.425781 692.398438 1013.523438 691.214844 C 1006.0625 690.320312 998.640625 690.40625 991.367188 692.570312 C 978.347656 696.449219 970.222656 705.015625 966.910156 718.183594 C 963.257812 732.707031 960.4375 747.378906 959.199219 762.3125 C 958.726562 768.074219 959.339844 773.835938 959.835938 779.558594 C 960.683594 789.386719 960.945312 799.171875 958.421875 808.832031 C 958.363281 809.214844 958.347656 809.601562 958.375 809.988281 Z M 913.332031 809.988281 " fill-opacity="1" fill-rule="nonzero"/></g><g clip-path="url(#889e0ba4e5)"><path fill="#019fcb" d="M 940.765625 809.988281 C 940.824219 806.988281 941.648438 804.105469 942.207031 801.195312 C 944.949219 786.890625 944.980469 772.59375 942.625 758.234375 C 939.125 736.9375 942.625 716.746094 952.75 697.726562 C 957.117188 689.5 962.976562 682.429688 970.53125 676.894531 C 982.738281 667.949219 996.515625 665.648438 1011.21875 667.515625 C 1024.371094 669.1875 1036.539062 673.957031 1048.519531 679.332031 C 1060.667969 684.792969 1072.484375 690.960938 1084.6875 696.300781 C 1095.875 701.191406 1107.285156 705.453125 1119.390625 707.488281 C 1127.53125 708.859375 1135.6875 708.945312 1143.742188 706.75 C 1162 701.777344 1170.9375 687.0625 1166.953125 668.589844 C 1165.132812 660.15625 1161.425781 652.503906 1157.230469 645.0625 C 1151.65625 635.175781 1145.230469 625.792969 1139.882812 615.777344 C 1135.152344 606.917969 1131.261719 597.75 1129.640625 587.765625 C 1128.457031 580.460938 1128.597656 573.230469 1131.335938 566.246094 C 1135.066406 556.753906 1142.226562 550.800781 1151.394531 546.972656 C 1159.503906 543.585938 1168.042969 542.058594 1176.746094 541.355469 C 1191.464844 540.171875 1206.078125 541.40625 1220.640625 543.488281 C 1237.015625 545.828125 1253.222656 549.175781 1269.585938 551.59375 C 1279.644531 553.082031 1289.71875 554.40625 1299.929688 553.929688 C 1305.261719 553.683594 1310.5 552.914062 1315.492188 550.949219 C 1326.132812 546.738281 1332.042969 538.441406 1335.121094 527.832031 C 1338.050781 517.75 1337.417969 507.605469 1335.277344 497.488281 C 1331.804688 481.039062 1324.730469 466.09375 1316.0625 451.835938 C 1303.316406 430.875 1287.21875 412.703125 1269.453125 395.925781 C 1246.878906 374.605469 1221.613281 356.9375 1195.085938 340.96875 C 1174.628906 328.652344 1153.800781 316.957031 1133.484375 304.410156 C 1113.425781 292.027344 1094.011719 278.746094 1076.289062 263.113281 C 1051.953125 241.640625 1032.734375 216.488281 1020.605469 186.183594 C 1014.164062 170.121094 1010.136719 153.519531 1009.578125 136.175781 C 1008.625 106.53125 1017.765625 80.3125 1036.507812 57.390625 C 1048.957031 42.152344 1064.316406 30.371094 1081.058594 20.28125 C 1092.671875 13.277344 1104.734375 7.128906 1116.960938 1.296875 C 1117.628906 0.972656 1118.335938 0.8125 1119.078125 0.820312 C 1166.851562 0.820312 1214.625 0.820312 1262.398438 0.820312 L 1263.335938 0.820312 L 1263.359375 1.042969 C 1259.15625 2.597656 1254.929688 4.09375 1250.742188 5.707031 C 1230.929688 13.320312 1212.296875 23.335938 1193.882812 33.800781 C 1179.300781 42.089844 1165.0625 50.960938 1152.175781 61.796875 C 1128.582031 81.636719 1110.441406 105.46875 1099.234375 134.347656 C 1094.957031 145.375 1092.40625 156.8125 1092.148438 168.667969 C 1091.621094 193.121094 1099.355469 214.730469 1115 233.464844 C 1126.839844 247.644531 1140.488281 259.988281 1154.519531 271.941406 C 1172.316406 287.097656 1192.066406 299.304688 1212.160156 311.101562 C 1246.066406 331.019531 1278.503906 353.199219 1309.65625 377.207031 C 1327.035156 390.609375 1341.824219 406.550781 1355.117188 423.949219 C 1362.042969 433.003906 1369.492188 441.671875 1375.390625 451.480469 C 1389.710938 475.304688 1399.035156 500.792969 1400.71875 528.742188 C 1401.472656 541.265625 1400.949219 553.734375 1396.988281 565.773438 C 1391.507812 582.433594 1380.160156 594.023438 1365.011719 602.304688 C 1350.769531 610.101562 1335.65625 611.96875 1319.734375 609.945312 C 1305.054688 608.074219 1290.914062 604.070312 1276.707031 600.136719 C 1262.035156 596.070312 1247.441406 591.683594 1232.59375 588.253906 C 1223.90625 586.246094 1215.121094 585.226562 1206.21875 586.679688 C 1201.019531 587.53125 1196.464844 589.796875 1192.476562 593.207031 C 1188.910156 596.261719 1187.171875 600.148438 1187.144531 604.824219 C 1187.113281 610.144531 1188.351562 615.238281 1189.996094 620.242188 C 1193.726562 631.617188 1198.699219 642.519531 1203.265625 653.574219 C 1208.074219 665.222656 1212.417969 677.023438 1214.726562 689.46875 C 1217.265625 703.074219 1216.808594 716.558594 1212.890625 729.859375 C 1205.996094 753.25 1187.261719 768.523438 1162.929688 770.628906 C 1146.566406 772.039062 1130.773438 769.308594 1115.304688 764.078125 C 1100.046875 758.914062 1085.40625 752.269531 1070.84375 745.433594 C 1059.65625 740.171875 1048.257812 735.410156 1036.164062 732.550781 C 1027.378906 730.472656 1018.535156 729.777344 1009.652344 731.820312 C 994.324219 735.347656 985.242188 745.382812 981.171875 760.082031 C 977.441406 773.589844 978.398438 787.128906 982.277344 800.53125 C 983.183594 803.65625 984.363281 806.71875 984.804688 809.96875 Z M 940.765625 809.988281 " fill-opacity="1" fill-rule="nonzero"/></g></svg>