<svg xmlns="http://www.w3.org/2000/svg" xmlns:xlink="http://www.w3.org/1999/xlink" width="1920" zoomAndPan="magnify" viewBox="0 0 1440 809.999993" height="1080" preserveAspectRatio="xMidYMid meet" version="1.0"><defs><clipPath id="93c7774b6b"><path d="M 941 0 L 1439.78125 0 L 1439.78125 810 L 941 810 Z M 941 0 " clip-rule="nonzero"/></clipPath></defs><path fill="#0c3c7c" d="M 911.597656 -33.230469 C 911.878906 -31.710938 912.824219 -30.472656 913.433594 -29.085938 C 917.589844 -19.390625 919.335938 -9.195312 919.570312 1.265625 C 919.96875 19.113281 918.066406 36.761719 914.730469 54.285156 C 912.390625 66.582031 909.539062 78.773438 907.71875 91.175781 C 904.609375 112.347656 910.707031 130.375 926.214844 145.003906 C 936.664062 154.863281 949.441406 160.140625 963.5625 162.253906 C 982.316406 165.050781 1000.425781 161.886719 1018.234375 156.230469 C 1030.535156 152.328125 1042.277344 147 1054.234375 142.214844 C 1064.792969 137.992188 1075.460938 134.117188 1086.761719 132.359375 C 1096.089844 130.910156 1105.292969 131.261719 1114.167969 134.789062 C 1120.472656 137.308594 1125.382812 141.261719 1127.011719 148.273438 C 1127.96875 152.449219 1127.40625 156.542969 1126.195312 160.574219 C 1123.804688 168.554688 1119.671875 175.699219 1115.355469 182.734375 C 1110.027344 191.433594 1104.441406 199.980469 1099.8125 209.089844 C 1093.679688 221.148438 1088.96875 233.675781 1087.414062 247.21875 C 1085.910156 260.3125 1087.648438 272.730469 1095.722656 283.644531 C 1101.84375 291.917969 1110.082031 297.296875 1119.574219 300.957031 C 1130.15625 305.039062 1141.222656 306.4375 1152.441406 306.632812 C 1169.484375 306.933594 1186.328125 304.820312 1203.128906 302.195312 C 1220.371094 299.503906 1237.449219 295.710938 1254.761719 293.390625 C 1265.371094 291.957031 1275.992188 290.71875 1286.714844 292.089844 C 1292.742188 292.863281 1298.457031 294.597656 1303.226562 298.554688 C 1309.65625 303.90625 1312.058594 311.128906 1312.316406 319.191406 C 1312.632812 328.855469 1310.042969 337.90625 1306.363281 346.738281 C 1301.011719 359.582031 1293.046875 370.722656 1284.445312 381.507812 C 1271.289062 397.996094 1255.457031 411.261719 1236.710938 420.871094 C 1205.828125 436.699219 1175.714844 453.941406 1145.199219 470.441406 C 1128.523438 479.457031 1110.84375 486.316406 1093.464844 493.832031 C 1070.078125 503.945312 1047.046875 514.777344 1025.03125 527.695312 C 994.339844 545.703125 970.703125 570.714844 951.78125 600.527344 C 937.808594 622.546875 928.203125 646.277344 923.609375 671.988281 C 919.078125 697.359375 919.875 722.582031 925.742188 747.664062 C 933.425781 780.511719 949.039062 809.417969 969.59375 835.859375 C 971.351562 838.125 972.894531 840.996094 975.226562 842.257812 C 977.5625 843.523438 980.839844 842.601562 983.699219 842.605469 C 1033.320312 842.617188 1082.9375 842.617188 1132.554688 842.605469 L 1146.175781 842.605469 L 1146.238281 842.332031 C 1142.734375 840.828125 1139.152344 839.484375 1135.742188 837.792969 C 1123.554688 831.742188 1110.855469 826.738281 1099.121094 819.765625 C 1093.914062 816.640625 1089.097656 813.003906 1084.671875 808.84375 C 1077.601562 802.273438 1070.488281 795.746094 1063.441406 789.144531 C 1051.867188 778.300781 1043.503906 765.320312 1037.757812 750.570312 C 1033.929688 740.722656 1030.015625 730.914062 1028.003906 720.480469 C 1026.621094 713.296875 1026.453125 706.027344 1026.6875 698.753906 C 1027.019531 687.183594 1028.40625 675.738281 1030.851562 664.425781 C 1034.292969 648.71875 1041.632812 634.945312 1051.335938 622.269531 C 1064.546875 605.023438 1079.613281 589.578125 1095.910156 575.25 C 1106.828125 565.648438 1117.445312 555.699219 1128.199219 545.894531 C 1141.832031 533.464844 1157.152344 523.507812 1173.300781 514.703125 C 1188.3125 506.503906 1203.847656 499.332031 1218.796875 491.027344 C 1236.367188 481.269531 1253.921875 471.503906 1270.882812 460.691406 C 1299.074219 442.710938 1322.566406 419.898438 1342.007812 392.734375 C 1354.679688 375.03125 1367.117188 357.207031 1376.714844 337.585938 C 1381.226562 328.371094 1385.496094 319.058594 1389.0625 309.414062 C 1396.289062 289.863281 1393.125 271.699219 1381.984375 254.589844 C 1377.167969 247.195312 1371.265625 240.808594 1364.269531 235.429688 C 1353.226562 226.898438 1340.585938 223.953125 1326.890625 224.738281 C 1310.246094 225.699219 1293.597656 226.714844 1276.949219 227.675781 C 1259.019531 228.730469 1241.085938 229.800781 1223.113281 229.40625 C 1214.355469 229.214844 1205.695312 228.140625 1197.335938 225.3125 C 1193.554688 224.023438 1190.054688 222.1875 1186.84375 219.808594 C 1180.773438 215.351562 1177.75 209.308594 1177.304688 201.828125 C 1176.8125 193.332031 1178.605469 185.183594 1180.972656 177.121094 C 1184.675781 164.402344 1189.296875 151.972656 1192.914062 139.226562 C 1195.515625 130.050781 1198.171875 120.925781 1199.882812 111.535156 C 1203.75 90.34375 1192.195312 76.828125 1176.683594 70.882812 C 1166.042969 66.800781 1154.984375 65.871094 1143.707031 66.480469 C 1130.78125 67.179688 1118.175781 69.816406 1105.582031 72.558594 C 1087.1875 76.558594 1069.332031 82.464844 1051.34375 87.925781 C 1041.070312 91.046875 1030.742188 94.046875 1020.023438 95.328125 C 1011.953125 96.296875 1003.921875 96.203125 996.050781 93.859375 C 981.960938 89.664062 973.167969 80.390625 969.585938 66.132812 C 965.652344 50.414062 962.59375 34.53125 961.25 18.386719 C 960.730469 12.148438 961.398438 5.910156 961.933594 -0.28125 C 962.851562 -10.921875 963.136719 -21.511719 960.402344 -31.96875 C 960.339844 -32.382812 960.324219 -32.800781 960.351562 -33.21875 Z M 911.597656 -33.230469 " fill-opacity="1" fill-rule="nonzero"/><g clip-path="url(#93c7774b6b)"><path fill="#f7a81b" d="M 941.296875 -33.230469 C 941.359375 -29.988281 942.25 -26.867188 942.855469 -23.71875 C 945.824219 -8.230469 945.855469 7.242188 943.300781 22.785156 C 939.519531 45.839844 943.320312 67.691406 954.261719 88.277344 C 958.992188 97.179688 965.328125 104.835938 973.507812 110.828125 C 986.714844 120.507812 1001.625 123 1017.535156 120.976562 C 1031.761719 119.167969 1044.933594 114.007812 1057.898438 108.191406 C 1071.042969 102.277344 1083.828125 95.601562 1097.035156 89.824219 C 1109.144531 84.527344 1121.492188 79.917969 1134.59375 77.714844 C 1143.402344 76.230469 1152.226562 76.136719 1160.945312 78.511719 C 1180.703125 83.894531 1190.375 99.824219 1186.0625 119.816406 C 1184.089844 128.945312 1180.082031 137.226562 1175.535156 145.285156 C 1169.507812 155.984375 1162.554688 166.136719 1156.765625 176.980469 C 1151.628906 186.570312 1147.441406 196.492188 1145.6875 207.300781 C 1144.402344 215.207031 1144.550781 223.035156 1147.519531 230.59375 C 1151.558594 240.867188 1159.300781 247.3125 1169.222656 251.453125 C 1178 255.125 1187.238281 256.773438 1196.660156 257.535156 C 1212.585938 258.820312 1228.402344 257.480469 1244.160156 255.226562 C 1261.878906 252.695312 1279.417969 249.070312 1297.125 246.457031 C 1308.011719 244.84375 1318.910156 243.410156 1329.964844 243.925781 C 1335.730469 244.191406 1341.398438 245.023438 1346.800781 247.152344 C 1358.316406 251.710938 1364.714844 260.691406 1368.046875 272.175781 C 1371.214844 283.085938 1370.527344 294.066406 1368.214844 305.015625 C 1364.453125 322.820312 1356.800781 339 1347.417969 354.433594 C 1333.625 377.121094 1316.207031 396.792969 1296.980469 414.953125 C 1272.550781 438.027344 1245.210938 457.152344 1216.503906 474.4375 C 1194.367188 487.773438 1171.828125 500.429688 1149.84375 514.007812 C 1128.136719 527.414062 1107.132812 541.789062 1087.957031 558.710938 C 1061.613281 581.949219 1040.816406 609.171875 1027.691406 641.980469 C 1020.722656 659.359375 1016.363281 677.332031 1015.761719 696.105469 C 1014.726562 728.191406 1024.617188 756.574219 1044.902344 781.382812 C 1058.386719 797.875 1074.992188 810.628906 1093.109375 821.546875 C 1105.679688 829.128906 1118.734375 835.785156 1131.964844 842.097656 C 1132.6875 842.445312 1133.449219 842.617188 1134.253906 842.609375 C 1185.953125 842.609375 1237.648438 842.609375 1289.34375 842.609375 L 1290.371094 842.609375 L 1290.398438 842.367188 C 1285.847656 840.683594 1281.277344 839.0625 1276.746094 837.316406 C 1255.304688 829.078125 1235.140625 818.234375 1215.214844 806.910156 C 1199.4375 797.9375 1184.027344 788.335938 1170.082031 776.605469 C 1144.542969 755.128906 1124.894531 729.332031 1112.785156 698.085938 C 1108.15625 686.148438 1105.394531 673.765625 1105.117188 660.933594 C 1104.542969 634.46875 1112.917969 611.078125 1129.847656 590.800781 C 1142.660156 575.449219 1157.425781 562.089844 1172.609375 549.152344 C 1191.867188 532.746094 1213.242188 519.535156 1234.988281 506.765625 C 1271.679688 485.203125 1306.777344 461.199219 1340.488281 435.210938 C 1359.296875 420.707031 1375.300781 403.449219 1389.6875 384.621094 C 1397.179688 374.816406 1405.242188 365.433594 1411.625 354.816406 C 1427.117188 329.03125 1437.207031 301.441406 1439.03125 271.1875 C 1439.847656 257.632812 1439.28125 244.136719 1434.996094 231.105469 C 1429.066406 213.074219 1416.785156 200.527344 1400.394531 191.5625 C 1384.980469 183.125 1368.625 181.101562 1351.398438 183.292969 C 1335.511719 185.320312 1320.210938 189.652344 1304.835938 193.910156 C 1288.957031 198.3125 1273.164062 203.0625 1257.097656 206.773438 C 1247.695312 208.945312 1238.191406 210.050781 1228.554688 208.476562 C 1222.929688 207.554688 1218.003906 205.105469 1213.683594 201.410156 C 1209.828125 198.105469 1207.945312 193.898438 1207.914062 188.835938 C 1207.882812 183.078125 1209.21875 177.566406 1211 172.148438 C 1215.039062 159.835938 1220.421875 148.035156 1225.359375 136.070312 C 1230.566406 123.460938 1235.265625 110.6875 1237.765625 97.21875 C 1240.507812 82.492188 1240.015625 67.894531 1235.777344 53.5 C 1228.316406 28.179688 1208.042969 11.644531 1181.710938 9.371094 C 1164.003906 7.84375 1146.910156 10.796875 1130.171875 16.460938 C 1113.660156 22.046875 1097.820312 29.242188 1082.0625 36.640625 C 1069.953125 42.332031 1057.617188 47.488281 1044.53125 50.585938 C 1035.027344 52.835938 1025.453125 53.589844 1015.84375 51.375 C 999.257812 47.558594 989.425781 36.699219 985.023438 20.785156 C 980.988281 6.164062 982.023438 -8.492188 986.222656 -22.996094 C 987.203125 -26.382812 988.480469 -29.695312 988.957031 -33.214844 Z M 941.296875 -33.230469 " fill-opacity="1" fill-rule="nonzero"/></g><path fill="#ffffff" d="M 200.433594 178.117188 C 203.667969 172.40625 204.503906 166.246094 203.679688 159.839844 C 202.796875 153.003906 199.800781 146.914062 196.5 140.988281 C 190.769531 130.695312 184.105469 120.945312 178.628906 110.511719 C 170.445312 94.894531 162.695312 79.09375 157.507812 62.167969 C 155.175781 54.570312 153.15625 46.921875 153.359375 38.863281 C 153.640625 27.910156 158.472656 19.132812 166.433594 11.980469 C 172.203125 6.796875 179.144531 3.347656 185.894531 -0.371094 C 197.457031 -6.738281 209.679688 -10.722656 222.90625 -11.582031 C 225.667969 -11.753906 228.46875 -11.886719 231.183594 -12.570312 L 137.683594 -12.570312 C 136.179688 -11.296875 134.667969 -10.027344 133.175781 -8.746094 C 125.113281 -1.8125 118.636719 6.226562 115.46875 16.574219 C 112.574219 26.015625 112.882812 35.566406 114.730469 45.117188 C 117.886719 61.414062 123.773438 76.808594 130.398438 91.949219 C 133.460938 98.957031 136.863281 105.800781 139.238281 113.082031 C 140.199219 116.027344 140.953125 119.035156 140.796875 122.164062 C 140.601562 126.226562 138.675781 128.722656 135.277344 129.171875 C 133.585938 129.394531 131.902344 129.351562 130.226562 129.042969 C 124.617188 127.992188 119.667969 125.359375 114.804688 122.605469 C 101.902344 115.320312 89.222656 107.625 75.949219 101.023438 C 58.386719 92.300781 40.507812 84.496094 20.621094 82.859375 C 14.136719 82.28125 7.683594 82.527344 1.261719 83.59375 C 0.300781 83.734375 0.0195312 84.109375 0.0195312 85.046875 C 0.046875 103.898438 0.046875 122.746094 0.0195312 141.589844 C 0.0195312 142.875 0.425781 142.953125 1.421875 142.488281 C 4.226562 141.15625 7.199219 140.316406 10.183594 139.535156 C 18.097656 137.464844 26.105469 136.492188 34.253906 137.671875 C 39.160156 138.371094 44.042969 139.210938 48.90625 140.121094 C 60.273438 142.253906 71.550781 144.855469 82.167969 149.511719 C 98.085938 156.484375 113.683594 164.175781 129.628906 171.101562 C 138.132812 174.796875 146.425781 178.984375 155.234375 181.960938 C 164.792969 185.171875 174.511719 187.605469 184.707031 187.003906 C 191.363281 186.601562 196.972656 184.21875 200.433594 178.117188 Z M 200.433594 178.117188 " fill-opacity="1" fill-rule="nonzero"/><path fill="#ffffff" d="M 345.277344 -11.640625 C 344.925781 -11.910156 344.445312 -12.089844 344.300781 -12.589844 L 238.886719 -12.589844 C 239.136719 -12.453125 239.402344 -12.351562 239.675781 -12.285156 C 245.867188 -11.582031 252.003906 -10.496094 258.144531 -9.429688 C 279.042969 -5.789062 299.171875 0.289062 318.347656 9.410156 C 330.039062 14.964844 341.699219 20.578125 353.394531 26.09375 C 362.789062 30.527344 372.339844 34.558594 382.59375 36.636719 C 391.761719 38.492188 400.960938 39.160156 410.140625 36.78125 C 418.652344 34.574219 425.316406 30.007812 428.714844 21.542969 C 431.628906 14.296875 432.113281 6.722656 431.652344 -0.960938 C 431.414062 -4.9375 430.25 -8.738281 429.371094 -12.589844 L 397.152344 -12.589844 C 397.6875 -10.695312 398.726562 -8.988281 398.027344 -6.777344 C 396.625 -2.320312 393.277344 0.0078125 389.320312 1.703125 C 384.964844 3.574219 380.464844 3.488281 375.953125 2.300781 C 364.945312 -0.578125 354.5 -4.761719 345.277344 -11.640625 Z M 345.277344 -11.640625 " fill-opacity="1" fill-rule="nonzero"/><path fill="#ffffff" d="M 201.742188 542.023438 C 176.195312 522.863281 149.132812 506.15625 120.550781 491.90625 C 97.652344 480.441406 74.347656 469.8125 51.636719 457.957031 C 38.484375 451.085938 25.675781 443.679688 13.679688 434.910156 C 9.023438 431.507812 4.574219 427.855469 0.328125 423.953125 C 0.164062 424.300781 0.0742188 424.398438 0.0742188 424.492188 C 0.0742188 438.085938 0.0625 451.679688 0.0390625 465.277344 C 0.046875 465.957031 0.320312 466.503906 0.863281 466.914062 C 5.121094 470.738281 9.601562 474.285156 14.296875 477.554688 C 27.664062 486.925781 41.980469 494.664062 56.464844 502.078125 C 80.191406 514.234375 104.296875 525.660156 127.46875 538.859375 C 144.714844 548.667969 161.628906 559.042969 177.207031 571.414062 C 190.71875 582.148438 202.707031 594.296875 212.148438 608.859375 C 220.3125 621.449219 225.117188 635.015625 225.003906 650.160156 C 224.945312 659.265625 221.703125 666.972656 215.273438 673.390625 C 208.847656 679.808594 201.132812 684.644531 193.085938 688.804688 C 175.832031 697.742188 157.207031 701.382812 138.019531 702.722656 C 128.058594 703.421875 118.089844 703.398438 108.113281 703.179688 C 93.175781 702.828125 78.28125 701.777344 63.375 700.90625 C 55.921875 700.464844 48.472656 700 41.023438 699.503906 C 27.988281 698.625 14.957031 697.71875 1.929688 696.78125 C 0.308594 696.660156 0.015625 697.167969 0.0195312 698.671875 C 0.0703125 719.90625 0.0703125 741.140625 0.0195312 762.382812 C 0.0195312 763.863281 0.324219 764.335938 1.910156 764.386719 C 11.019531 764.691406 20.101562 764.976562 29.179688 765.558594 C 47.402344 766.722656 65.625 767.710938 83.882812 768.085938 C 104.769531 768.523438 125.65625 768.273438 146.46875 766.144531 C 157.644531 765 168.585938 762.800781 179.203125 759.046875 C 195.714844 753.191406 211.15625 745.109375 226.164062 736.183594 C 234.53125 731.210938 242.1875 725.324219 248.398438 717.71875 C 256.703125 707.539062 262.097656 695.820312 266.503906 683.574219 C 267.871094 679.847656 268.964844 676.042969 269.789062 672.160156 C 270.613281 668.277344 271.160156 664.355469 271.425781 660.394531 C 271.695312 656.433594 271.679688 652.476562 271.382812 648.519531 C 271.085938 644.558594 270.511719 640.640625 269.65625 636.765625 C 266.359375 621.351562 260.003906 607.371094 251.394531 594.285156 C 237.972656 573.878906 221.230469 556.675781 201.742188 542.023438 Z M 201.742188 542.023438 " fill-opacity="1" fill-rule="nonzero"/><path fill="#019fcb" d="M 524.289062 -12.574219 C 524.019531 -11.121094 523.117188 -9.941406 522.535156 -8.617188 C 518.566406 0.636719 516.898438 10.371094 516.671875 20.359375 C 516.292969 37.398438 518.109375 54.246094 521.296875 70.972656 C 523.53125 82.714844 526.253906 94.355469 527.992188 106.191406 C 530.964844 126.402344 525.136719 143.613281 510.328125 157.582031 C 500.347656 166.992188 488.144531 172.03125 474.65625 174.046875 C 456.742188 176.71875 439.449219 173.695312 422.4375 168.296875 C 410.691406 164.574219 399.472656 159.484375 388.050781 154.914062 C 377.96875 150.886719 367.777344 147.1875 356.984375 145.511719 C 348.078125 144.125 339.289062 144.460938 330.808594 147.828125 C 324.789062 150.230469 320.097656 154.007812 318.542969 160.703125 C 317.628906 164.6875 318.164062 168.59375 319.324219 172.445312 C 321.605469 180.0625 325.554688 186.882812 329.675781 193.601562 C 334.765625 201.902344 340.101562 210.066406 344.523438 218.761719 C 350.378906 230.269531 354.878906 242.230469 356.359375 255.160156 C 357.796875 267.660156 356.140625 279.515625 348.425781 289.9375 C 342.582031 297.832031 334.714844 302.96875 325.648438 306.464844 C 315.542969 310.359375 304.988281 311.695312 294.257812 311.878906 C 277.980469 312.167969 261.890625 310.148438 245.847656 307.644531 C 229.375 305.074219 213.066406 301.453125 196.527344 299.238281 C 186.398438 297.871094 176.253906 296.6875 166.011719 297.996094 C 160.253906 298.738281 154.796875 300.390625 150.257812 304.167969 C 144.117188 309.277344 141.824219 316.171875 141.570312 323.871094 C 141.273438 333.09375 143.75 341.738281 147.261719 350.167969 C 152.371094 362.429688 159.980469 373.066406 168.199219 383.359375 C 180.761719 399.101562 195.882812 411.765625 213.789062 420.9375 C 243.285156 436.050781 272.046875 452.507812 301.195312 468.261719 C 317.121094 476.871094 334.007812 483.417969 350.605469 490.589844 C 372.96875 500.234375 394.972656 510.578125 416 522.910156 C 445.3125 540.101562 467.886719 563.976562 485.960938 592.441406 C 499.304688 613.460938 508.480469 636.113281 512.867188 660.660156 C 517.195312 684.882812 516.433594 708.960938 510.832031 732.90625 C 503.492188 764.265625 488.582031 791.859375 468.949219 817.101562 C 467.265625 819.265625 465.796875 822.007812 463.566406 823.210938 C 461.335938 824.417969 458.207031 823.539062 455.476562 823.542969 C 408.082031 823.554688 360.691406 823.554688 313.300781 823.542969 L 300.242188 823.542969 L 300.179688 823.28125 C 303.527344 821.847656 306.949219 820.5625 310.203125 818.949219 C 321.84375 813.171875 333.976562 808.394531 345.183594 801.738281 C 350.15625 798.757812 354.753906 795.28125 358.984375 791.3125 C 365.734375 785.039062 372.53125 778.808594 379.257812 772.503906 C 390.316406 762.152344 398.300781 749.761719 403.789062 735.679688 C 407.445312 726.277344 411.183594 716.917969 413.105469 706.953125 C 414.425781 700.09375 414.589844 693.15625 414.363281 686.210938 C 414.046875 675.171875 412.726562 664.25 410.394531 653.453125 C 407.101562 638.457031 400.097656 625.308594 390.824219 613.207031 C 378.207031 596.742188 363.839844 582 348.253906 568.320312 C 337.824219 559.15625 327.6875 549.652344 317.417969 540.292969 C 304.398438 528.429688 289.761719 518.925781 274.339844 510.515625 C 260.003906 502.691406 245.164062 495.84375 230.882812 487.914062 C 214.105469 478.601562 197.332031 469.277344 181.121094 458.953125 C 154.195312 441.789062 131.757812 420.011719 113.1875 394.078125 C 101.089844 377.179688 89.207031 360.164062 80.039062 341.433594 C 75.734375 332.632812 71.652344 323.742188 68.25 314.535156 C 61.34375 295.871094 64.367188 278.53125 75.007812 262.199219 C 79.609375 255.140625 85.246094 249.042969 91.929688 243.90625 C 102.476562 235.761719 114.550781 232.953125 127.628906 233.699219 C 143.527344 234.617188 159.425781 235.585938 175.328125 236.503906 C 192.453125 237.507812 209.582031 238.53125 226.75 238.15625 C 235.113281 237.976562 243.382812 236.949219 251.367188 234.246094 C 254.980469 233.015625 258.320312 231.265625 261.390625 228.992188 C 267.1875 224.738281 270.074219 218.96875 270.5 211.828125 C 270.972656 203.71875 269.257812 195.9375 267.015625 188.242188 C 263.480469 176.097656 259.0625 164.234375 255.609375 152.0625 C 253.125 143.304688 250.589844 134.59375 248.949219 125.628906 C 245.253906 105.398438 256.308594 92.492188 271.109375 86.820312 C 281.269531 82.921875 291.832031 82.035156 302.601562 82.613281 C 314.945312 83.285156 326.992188 85.804688 339.019531 88.417969 C 356.585938 92.238281 373.640625 97.878906 390.820312 103.089844 C 400.632812 106.066406 410.5 108.933594 420.734375 110.15625 C 428.445312 111.082031 436.117188 110.992188 443.632812 108.753906 C 457.089844 104.746094 465.488281 95.894531 468.910156 82.285156 C 472.683594 67.277344 475.601562 52.121094 476.878906 36.6875 C 477.371094 30.734375 476.738281 24.777344 476.226562 18.867188 C 475.347656 8.710938 475.074219 -1.398438 477.6875 -11.382812 C 477.746094 -11.78125 477.761719 -12.175781 477.734375 -12.574219 Z M 524.289062 -12.574219 " fill-opacity="1" fill-rule="nonzero"/><path fill="#f7a81b" d="M 495.933594 -12.574219 C 495.875 -9.476562 495.023438 -6.496094 494.445312 -3.492188 C 491.609375 11.292969 491.578125 26.0625 494.011719 40.902344 C 497.628906 62.910156 494.011719 83.773438 483.550781 103.425781 C 479.03125 111.925781 472.980469 119.234375 465.167969 124.953125 C 452.550781 134.195312 438.3125 136.574219 423.113281 134.644531 C 409.523438 132.917969 396.945312 127.988281 384.566406 122.433594 C 372.007812 116.792969 359.796875 110.417969 347.183594 104.902344 C 335.617188 99.847656 323.824219 95.445312 311.3125 93.339844 C 302.902344 91.921875 294.46875 91.835938 286.140625 94.101562 C 267.273438 99.242188 258.035156 114.449219 262.152344 133.53125 C 264.035156 142.25 267.867188 150.15625 272.203125 157.847656 C 277.964844 168.0625 284.605469 177.757812 290.132812 188.109375 C 295.023438 197.261719 299.042969 206.734375 300.71875 217.054688 C 301.945312 224.601562 301.796875 232.070312 298.964844 239.289062 C 295.109375 249.097656 287.710938 255.25 278.234375 259.203125 C 269.851562 262.707031 261.027344 264.28125 252.03125 265.007812 C 236.820312 266.234375 221.714844 264.957031 206.664062 262.804688 C 189.742188 260.386719 172.988281 256.929688 156.078125 254.433594 C 145.679688 252.894531 135.265625 251.523438 124.710938 252.015625 C 119.203125 252.269531 113.789062 253.066406 108.628906 255.097656 C 97.628906 259.449219 91.519531 268.019531 88.339844 278.984375 C 85.3125 289.402344 85.964844 299.886719 88.179688 310.339844 C 91.769531 327.335938 99.082031 342.78125 108.042969 357.515625 C 121.214844 379.175781 137.851562 397.953125 156.214844 415.289062 C 179.546875 437.320312 205.660156 455.574219 233.078125 472.078125 C 254.21875 484.804688 275.746094 496.886719 296.746094 509.851562 C 317.480469 522.648438 337.542969 536.375 355.859375 552.527344 C 381.015625 574.714844 400.878906 600.703125 413.414062 632.023438 C 420.074219 648.617188 424.234375 665.773438 424.8125 683.695312 C 425.796875 714.328125 416.351562 741.421875 396.976562 765.105469 C 384.109375 780.851562 368.234375 793.027344 350.933594 803.453125 C 338.929688 810.6875 326.460938 817.042969 313.824219 823.070312 C 313.132812 823.40625 312.40625 823.570312 311.636719 823.5625 C 262.257812 823.5625 212.882812 823.5625 163.507812 823.5625 L 162.535156 823.5625 L 162.511719 823.332031 C 166.855469 821.726562 171.222656 820.179688 175.550781 818.511719 C 196.03125 810.648438 215.289062 800.296875 234.320312 789.484375 C 249.390625 780.917969 264.109375 771.75 277.425781 760.550781 C 301.8125 740.050781 320.5625 715.425781 332.144531 685.585938 C 336.566406 674.191406 339.203125 662.371094 339.46875 650.121094 C 340.015625 624.851562 332.019531 602.523438 315.847656 583.164062 C 303.613281 568.511719 289.507812 555.757812 275.003906 543.40625 C 256.609375 527.742188 236.195312 515.132812 215.429688 502.941406 C 180.382812 482.355469 146.859375 459.4375 114.660156 434.628906 C 96.699219 420.78125 81.414062 404.304688 67.671875 386.332031 C 60.515625 376.976562 52.8125 368.015625 46.71875 357.878906 C 31.921875 333.261719 22.285156 306.925781 20.542969 278.042969 C 19.765625 265.101562 20.304688 252.21875 24.398438 239.777344 C 30.058594 222.566406 41.789062 210.585938 57.449219 202.027344 C 72.167969 193.972656 87.789062 192.042969 104.242188 194.132812 C 119.417969 196.066406 134.03125 200.203125 148.714844 204.269531 C 163.882812 208.472656 178.964844 213.003906 194.3125 216.550781 C 203.289062 218.625 212.371094 219.679688 221.570312 218.175781 C 226.945312 217.296875 231.652344 214.957031 235.777344 211.429688 C 239.460938 208.273438 241.257812 204.257812 241.285156 199.425781 C 241.316406 193.925781 240.039062 188.664062 238.335938 183.496094 C 234.484375 171.738281 229.339844 160.476562 224.625 149.050781 C 219.652344 137.015625 215.164062 124.820312 212.777344 111.960938 C 210.15625 97.902344 210.625 83.96875 214.675781 70.222656 C 221.800781 46.054688 241.164062 30.269531 266.3125 28.097656 C 283.226562 26.640625 299.550781 29.457031 315.539062 34.863281 C 331.308594 40.199219 346.441406 47.066406 361.488281 54.132812 C 373.054688 59.566406 384.835938 64.488281 397.332031 67.441406 C 406.410156 69.589844 415.554688 70.308594 424.734375 68.195312 C 440.578125 64.554688 449.964844 54.183594 454.171875 38.996094 C 458.027344 25.035156 457.039062 11.042969 453.027344 -2.804688 C 452.09375 -6.035156 450.875 -9.199219 450.417969 -12.558594 Z M 495.933594 -12.574219 " fill-opacity="1" fill-rule="nonzero"/></svg>