<svg width="1440" height="2603" viewBox="0 0 1400 2603" fill="none" xmlns="http://www.w3.org/2000/svg">
<path d="M960 1310.5C960 1313.27 960 1325.25 952.999 1333.93C939.604 1350.55 917.453 1357.28 919.5 1375C920.054 1407.03 919.5 1402.5 939 1445.5C931.5 1475 922.006 1531.44 919.5 1553.7C915.206 1591.69 930.5 1620.15 964 1646C992 1662.98 1000.6 1670 1020.07 1673.79C1045.92 1678.82 1070.88 1673.14 1095.43 1662.98C1112.39 1655.99 1128.58 1646.42 1145.07 1637.83C1159.62 1630.26 1174.32 1623.31 1189.91 1620.15C1202.76 1617.55 1215.45 1618.17 1227.69 1624.51C1236.37 1629.03 1243.15 1636.13 1245.39 1648.71C1246.71 1656.2 1245.94 1663.55 1244.26 1670.78C1240.97 1685.1 1235.27 1697.92 1229.32 1710.55C1221.97 1726.16 1214.28 1741.5 1207.89 1757.84C1199.44 1779.48 1192.94 1801.96 1190.8 1826.26C1188.73 1849.76 1191.12 1872.04 1202.26 1891.63C1210.69 1906.47 1222.05 1916.13 1235.13 1922.7C1249.72 1930.02 1264.95 1932.53 1280.44 1932.88C1303.94 1933.42 1327.16 1929.62 1350.32 1924.91C1374.09 1920.08 1397.63 1913.28 1421.5 1909.11C1436.12 1906.54 1450.77 1904.32 1465.54 1906.78C1473.85 1908.17 1481.73 1911.28 1488.28 1918.38C1497.15 1927.98 1500.46 1940.94 1500.82 1955.41C1501.25 1972.75 1497.68 1989 1492.61 2004.84C1485.23 2027.89 1474.25 2047.89 1462.39 2067.24C1444.26 2096.82 1422.43 2120.62 1396.58 2137.87C1354.01 2166.28 1312.5 2197.21 1270.43 2226.82C1247.44 2243.01 1223.07 2255.31 1199.11 2268.8C1166.84 2286.92 1135.08 2306.36 1104.72 2329.55C1062.42 2361.86 1029.84 2406.74 1003.75 2460.24C984.489 2499.75 971.249 2542.33 964.915 2588.47C958.668 2634 959.764 2679.26 967.852 2724.27C978.446 2783.22 999.966 2835.08 1028.3 2882.54C1030.73 2886.59 1032.86 2891.75 1036.07 2894.01C1039.29 2896.28 1043.8 2894.63 1047.75 2894.64C1116.16 2894.66 1184.56 2894.66 1252.95 2894.64H1271.81L1271.89 2894.15C1267.06 2891.45 1262.12 2889.04 1257.43 2886C1240.63 2875.15 1223.12 2866.16 1206.94 2853.65C1199.76 2848.04 1193.12 2841.52 1187.02 2834.05C1177.27 2822.26 1167.47 2810.55 1157.76 2798.7C1141.8 2779.24 1130.27 2755.96 1122.35 2729.49C1117.07 2711.81 1111.68 2694.21 1108.9 2675.49C1107 2662.6 1106.76 2649.55 1107.09 2636.5C1107.54 2615.75 1109.46 2595.21 1112.82 2574.92C1117.57 2546.74 1127.68 2522.02 1141.06 2499.27C1159.27 2468.32 1180.01 2440.61 1202.51 2414.9C1217.56 2397.67 1232.19 2379.81 1247.01 2362.22C1265.81 2339.92 1286.93 2322.05 1309.19 2306.25C1329.88 2291.54 1351.3 2278.67 1371.91 2263.77C1396.13 2246.25 1420.34 2228.73 1443.74 2209.33C1482.6 2177.07 1514.98 2136.12 1541.78 2087.38C1559.25 2055.62 1576.4 2023.64 1589.63 1988.42C1595.85 1971.88 1601.74 1955.17 1606.65 1937.87C1616.62 1902.78 1612.25 1870.19 1596.89 1839.49C1590.25 1826.22 1582.11 1814.76 1572.47 1805.11C1557.25 1789.8 1539.82 1784.52 1520.94 1785.92C1498 1787.64 1475.05 1789.46 1452.1 1791.19C1427.38 1793.08 1402.66 1795 1377.88 1794.3C1365.81 1793.96 1353.87 1792.03 1342.35 1786.95C1337.13 1784.64 1332.31 1781.35 1327.88 1777.07C1319.52 1769.08 1315.35 1758.23 1314.73 1744.8C1314.05 1729.56 1340.77 1720.97 1344 1706.5C1349.1 1683.68 1353.52 1655.88 1358.5 1633C1362.08 1616.54 1356.13 1597.55 1358.5 1580.7C1363.83 1542.67 1335.22 1520.5 1313.85 1509.84C1299.19 1502.51 1283.94 1500.84 1268.39 1501.93C1250.58 1503.19 1233.2 1507.92 1215.84 1512.84C1190.48 1520.02 1165.86 1530.62 1141.07 1540.42C1126.91 1546.01 1112.67 1551.4 1097.89 1553.7C1086.76 1555.43 1075.69 1555.27 1064.84 1551.06C1045.42 1543.53 1033.3 1526.89 1028.36 1501.32C1022.91 1473.11 1018.7 1444.61 1016.85 1415.6C1016.15 1404.41 1017.06 1393.22 1017.8 1382.1C1019.07 1363.01 1019.46 1344.01 1015.69 1325.25C1015.61 1324.5 1015.58 1323.75 1015.62 1323L960 1310.5Z" fill="#0C3C7C"/>
<path d="M1279.69 506.586C1306.07 541.028 1334.02 571.059 1363.53 596.679C1387.17 617.285 1411.24 636.389 1434.7 657.698C1448.28 670.047 1461.5 683.361 1473.9 699.128C1478.7 705.244 1483.3 711.811 1487.68 718.82C1487.85 718.196 1487.94 718.022 1487.94 717.855C1487.94 693.418 1487.95 668.981 1487.98 644.537C1487.98 643.318 1487.69 642.331 1487.13 641.598C1482.73 634.72 1478.11 628.349 1473.26 622.465C1459.45 605.625 1444.67 591.723 1429.71 578.387C1405.21 556.541 1380.32 536 1356.38 512.274C1338.58 494.643 1321.11 475.996 1305.03 453.757C1291.07 434.458 1278.69 412.625 1268.94 386.447C1260.51 363.817 1255.55 339.431 1255.67 312.215C1255.73 295.839 1259.07 281.988 1265.71 270.452C1272.35 258.915 1280.32 250.223 1288.63 242.742C1306.44 226.678 1325.68 220.141 1345.49 217.725C1355.78 216.47 1366.07 216.513 1376.38 216.905C1391.8 217.536 1407.18 219.43 1422.58 220.997C1430.27 221.781 1437.97 222.623 1445.65 223.515C1459.12 225.089 1472.57 226.722 1486.03 228.405C1487.7 228.623 1488 227.716 1488 225.002C1487.95 186.845 1487.95 148.673 1488 110.487C1488 107.824 1487.68 106.975 1486.05 106.881C1476.64 106.337 1467.26 105.822 1457.89 104.777C1439.07 102.687 1420.25 100.91 1401.4 100.235C1379.83 99.4512 1358.26 99.901 1336.77 103.725C1325.23 105.778 1313.93 109.732 1302.96 116.487C1285.91 127.008 1269.96 141.534 1254.47 157.576C1245.83 166.522 1237.92 177.101 1231.51 190.77C1222.93 209.069 1217.36 230.132 1212.81 252.146C1211.4 258.843 1210.27 265.685 1209.42 272.665C1208.57 279.644 1208 286.69 1207.72 293.807C1207.45 300.925 1207.47 308.043 1207.77 315.161C1208.08 322.278 1208.67 329.316 1209.55 336.282C1212.96 363.991 1219.52 389.124 1228.41 412.647C1242.27 449.324 1259.56 480.255 1279.69 506.586Z" fill="#F7A81B"/>
<path d="M950 1503.49C950 1503.49 950 1497.77 950 1495.16C950 1476.94 931 1499.94 931 1468.5C931.396 1437.87 907.245 1395.5 902 1347.5C899.694 1326.4 897.5 1301 904.5 1269C915 1233.5 926.5 1219.33 961.019 1197.62C974 1187.5 986.5 1185 1003.79 1179.5C1039 1175 1022.5 1176 1053.54 1183.5C1070.5 1187.6 1075.5 1194.21 1087.29 1202.42C1097.7 1209.66 1108.22 1216.31 1119.37 1219.33C1128.57 1221.82 1137.65 1221.22 1146.4 1215.16C1152.62 1210.84 1157.46 1204.05 1159.07 1192.02C1160.01 1184.86 1159.46 1177.83 1158.26 1170.91C1155.9 1157.22 1151.83 1144.96 1147.57 1132.88C1142.32 1117.96 1136.81 1103.29 1132.24 1087.66C1126.19 1066.97 1121.54 1045.47 1120.01 1022.23C1118.53 999.757 1120.24 978.455 1128.21 959.721C1134.24 945.521 1142.37 936.292 1151.73 930.009C1162.17 923.007 1173.07 920.606 1184.15 920.272C1200.96 919.757 1217.57 923.384 1234.14 927.89C1251.15 932.512 1267.99 939.013 1285.07 942.996C1295.53 945.456 1306.01 947.582 1316.58 945.231C1322.53 943.903 1328.17 940.928 1332.85 934.137C1339.19 924.952 1341.56 912.559 1341.82 898.723C1342.13 882.144 1339.57 866.602 1335.95 851.452C1330.67 829.41 1322.81 810.291 1314.32 791.782C1301.35 763.492 1285.74 740.731 1267.25 724.239C1236.78 697.074 1207.09 667.493 1176.98 639.175C1160.54 623.698 1143.1 611.93 1125.96 599.037C1102.87 581.703 1080.14 563.114 1058.43 540.941C1028.16 510.039 1004.85 467.122 986.181 415.963C972.401 378.176 962.929 337.457 958.397 293.336C953.927 249.795 954.711 206.515 960.498 163.475C968.078 107.099 983.475 57.4991 1003.75 12.1225C1005.48 8.24077 1007.01 3.30695 1009.31 1.14478C1011.61 -1.02465 1014.84 0.557071 1017.66 0.549816C1066.61 0.528049 1115.55 0.528049 1164.48 0.549816H1177.97L1178.03 1.01418C1174.57 3.59717 1171.04 5.90446 1167.68 8.80671C1155.66 19.1895 1143.13 27.7801 1131.56 39.7447C1126.42 45.1066 1121.67 51.3464 1117.31 58.4859C1110.33 69.7611 1103.32 80.9638 1096.37 92.2898C1084.95 110.9 1076.7 133.168 1071.04 158.483C1067.26 175.388 1063.4 192.214 1061.42 210.121C1060.05 222.448 1059.89 234.921 1060.12 247.4C1060.44 267.252 1061.81 286.885 1064.22 306.294C1067.62 333.242 1074.85 356.88 1084.43 378.633C1097.45 408.228 1112.29 434.733 1128.39 459.322C1139.16 475.793 1149.63 492.872 1160.23 509.698C1173.68 531.022 1188.79 548.109 1204.72 563.223C1219.52 577.284 1234.85 589.597 1249.59 603.847C1266.92 620.593 1284.24 637.346 1300.98 655.906C1328.79 686.757 1351.96 725.908 1371.13 772.526C1383.63 802.898 1395.9 833.48 1405.36 867.153C1409.81 882.971 1414.03 898.955 1417.54 915.498C1424.67 949.055 1421.55 980.218 1410.56 1009.57C1405.81 1022.26 1399.99 1033.23 1393.09 1042.46C1382.2 1057.1 1369.73 1062.15 1356.22 1060.81C1339.8 1059.16 1323.39 1057.42 1306.97 1055.76C1289.28 1053.96 1271.59 1052.12 1253.86 1052.8C1245.23 1053.12 1236.68 1054.96 1228.44 1059.82C1224.71 1062.03 1221.26 1065.18 1218.09 1069.27C1212.11 1076.91 1209.12 1087.28 1208.68 1100.12C1208.2 1114.7 1209.97 1128.68 1212.28 1142.52C1215.93 1164.34 1220.49 1185.67 1224.06 1207.54C1226.62 1223.29 1229.24 1238.95 1230.94 1255.06C1234.75 1291.43 1223.34 1314.63 1208.05 1324.82C1197.56 1331.83 1186.65 1333.43 1175.53 1332.38C1162.78 1331.18 1150.35 1326.65 1137.93 1321.95C1119.79 1315.09 1102.17 1304.95 1084.43 1295.58C1074.3 1290.23 1064.11 1285.08 1053.54 1282.88C1045.58 1281.22 1037.65 1281.38 1029.89 1285.4C1016 1292.6 1007.32 1308.51 1003.79 1332.97C999.889 1359.95 996.879 1387.2 995.557 1414.94C995.053 1425.64 995.707 1436.34 996.237 1446.97C997.142 1465.23 997.421 1483.4 994.728 1501.34C994.665 1502.06 994.648 1502.77 994.678 1503.49H950Z" fill="#0C3C7C"/>
<path d="M991 1458.41C991.063 1452.84 976.91 1492.74 978.222 1487.57C987.5 1451 987.639 1432.5 978.222 1407.74C962.5 1366.41 961 1383.96 952.005 1337.41C942 1307.41 966.44 1280.2 974.5 1269.91C987.524 1253.29 1035.72 1235.71 1051.41 1239.18C1065.44 1242.29 1078.42 1251.15 1091.2 1261.14C1104.16 1271.28 1116.77 1282.75 1129.79 1292.67C1141.73 1301.75 1153.9 1309.67 1166.81 1313.45C1175.5 1316 1184.2 1316.16 1192.8 1312.08C1212.27 1302.84 1221.81 1275.5 1217.56 1241.18C1215.62 1225.51 1211.66 1211.29 1207.19 1197.46C1201.24 1179.09 1194.38 1161.66 1188.68 1143.05C1183.63 1126.59 1179.48 1109.55 1177.75 1091C1176.49 1077.43 1176.64 1063.99 1179.56 1051.02C1183.54 1033.38 1191.18 1022.32 1200.96 1015.2C1209.61 1008.91 1218.72 1006.07 1228.01 1004.77C1243.71 1002.57 1259.3 1004.86 1274.84 1008.73C1292.31 1013.08 1309.6 1019.3 1327.06 1023.79C1337.79 1026.56 1348.54 1029.02 1359.43 1028.13C1365.12 1027.67 1370.71 1026.24 1376.04 1022.59C1387.39 1014.77 1393.7 999.353 1396.98 979.64C1400.1 960.907 1399.43 942.058 1397.15 923.259C1393.44 892.695 1385.89 864.926 1376.65 838.434C1363.05 799.487 1345.87 765.722 1326.92 734.549C1302.83 694.934 1275.88 662.106 1247.57 632.434C1225.75 609.55 1203.53 587.819 1181.85 564.506C1160.45 541.498 1139.74 516.82 1120.83 487.773C1094.86 447.876 1074.36 401.141 1061.42 344.833C1054.55 314.987 1050.25 284.14 1049.65 251.914C1048.64 196.833 1058.39 148.116 1078.39 105.526C1091.67 77.2121 1108.06 55.3217 1125.92 36.574C1138.31 23.5603 1151.18 12.136 1164.22 1.29971C1164.93 0.697285 1165.69 0.399704 1166.48 0.414219C1217.45 0.414219 1268.42 0.414219 1319.39 0.414219H1320.39L1320.42 0.827932C1315.93 3.71665 1311.42 6.4965 1306.95 9.49409C1285.82 23.6401 1265.94 42.2499 1246.29 61.6943C1230.73 77.096 1215.54 93.5791 1201.79 113.713C1176.62 150.577 1157.27 194.859 1145.31 248.518C1140.75 269.007 1138.02 290.259 1137.75 312.287C1137.19 357.723 1145.44 397.875 1162.13 432.685C1174.76 459.031 1189.32 481.967 1204.29 504.177C1223.28 532.338 1244.35 555.02 1265.79 576.939C1301.97 613.948 1336.57 655.16 1369.81 699.768C1388.35 724.67 1404.13 754.291 1418.31 786.618C1425.7 803.442 1433.65 819.548 1439.94 837.773C1455.22 882.04 1465.17 929.399 1466.97 981.331C1467.77 1004.6 1467.21 1027.77 1462.99 1050.14C1457.14 1081.09 1445.03 1102.63 1428.87 1118.02C1413.67 1132.5 1397.55 1135.97 1380.56 1132.21C1364.9 1128.74 1349.81 1121.3 1334.66 1113.99C1319 1106.43 1303.43 1098.28 1287.59 1091.91C1278.32 1088.18 1268.95 1086.28 1259.45 1088.98C1253.91 1090.57 1249.05 1094.77 1244.79 1101.11C1240.99 1106.79 1239.13 1114.01 1239.1 1122.7C1239.07 1132.58 1240.39 1142.05 1242.14 1151.34C1246.12 1172.48 1251.43 1192.74 1256.3 1213.28C1261.43 1234.92 1266.07 1256.85 1268.53 1279.97C1271.24 1305.25 1270.75 1330.31 1266.57 1355.02C1259.21 1398.48 1239.23 1426.86 1213.27 1430.77C1195.81 1433.39 1178.96 1428.32 1162.46 1418.6C1146.18 1409.01 1130.56 1396.66 1115.02 1383.96C1103.08 1374.18 1090.92 1365.34 1078.02 1360.02C1068.65 1356.16 1059.21 1354.87 1049.73 1358.66C1033.38 1365.22 1023.69 1383.86 1019.35 1411.18C1015.37 1436.28 1019.35 1462.13 1019.35 1487.57C1019.35 1493.53 1019.35 1497.9 1019.35 1503.91L991 1458.41Z" fill="#019FCB"/>
<path d="M966.499 1364.5C966.594 1370.39 1002.96 1368.89 1006.5 1364.5C1033.5 1331 996.5 1426.5 982.499 1467.5C968.498 1508.5 954.5 1512.5 973 1561.5C981.615 1584.32 989.5 1594 1014.5 1601.5C1050 1608.5 1063.61 1608.5 1090.98 1608.5C1112.26 1605.22 1116 1603.82 1149.5 1592C1175 1583 1184.12 1579.11 1205.86 1572.04C1226 1565.5 1239 1557 1268.5 1565.5C1298 1574 1291.34 1573.38 1309 1587.5C1326.66 1601.62 1331 1611 1333.5 1649C1333.5 1672.5 1333.5 1677.49 1329.82 1694.2C1322 1716.5 1310.4 1732.01 1301.75 1751.66C1294.09 1769.05 1287.79 1787.04 1285.17 1806.63C1283.25 1820.96 1283.48 1835.15 1287.91 1848.86C1293.95 1867.48 1305.54 1879.17 1320.38 1886.68C1333.5 1893.32 1347.32 1896.32 1361.41 1897.7C1385.23 1900.02 1408.88 1897.6 1432.45 1893.52C1458.95 1888.92 1485.18 1882.36 1511.66 1877.61C1527.94 1874.69 1544.25 1872.09 1560.77 1873.03C1569.4 1873.51 1577.88 1875.02 1585.96 1878.88C1603.18 1887.14 1612.74 1903.42 1617.73 1924.24C1622.47 1944.02 1621.44 1963.93 1617.98 1983.78C1612.36 2016.06 1600.91 2045.39 1586.88 2073.37C1566.25 2114.5 1540.41 2116.08 1511.66 2149C1475.13 2190.84 1432.07 2212.66 1389.14 2244C1356.03 2268.17 1334.63 2281.38 1301.75 2306C1269.28 2330.3 1194.68 2386.32 1166 2417C1126.61 2459.14 1097.63 2531.03 1078 2590.5C1067.57 2622.02 1091.76 2658.75 1090.86 2692.78C1089.32 2750.96 1104.11 2802.41 1134.44 2847.38C1154.59 2877.29 1179.45 2900.41 1206.54 2920.2C1225.34 2933.95 1244.86 2946.01 1264.65 2957.46C1265.73 2958.09 1266.87 2958.41 1268.08 2958.39C1345.39 2958.39 1422.71 2958.39 1500.03 2958.39H1501.55L1501.58 2957.96C1494.78 2954.9 1487.94 2951.97 1481.16 2948.8C1449.1 2933.86 1418.94 2914.21 1389.14 2893.67C1365.54 2877.41 1342.5 2860 1321.64 2838.74C1283.46 2799.81 1254.1 2753.04 1235.96 2696.37C1229.04 2674.73 1224.91 2652.29 1224.49 2629.03C1223.64 2581.04 1236.16 2538.64 1261.48 2501.87C1280.64 2474.05 1302.73 2449.83 1325.44 2426.37C1354.24 2396.63 1386.2 2372.68 1418.72 2349.53C1473.6 2310.44 1526.1 2266.92 1576.51 2219.81C1604.64 2193.51 1628.57 2162.23 1650.09 2128.09C1661.3 2110.32 1673.35 2093.31 1682.9 2074.06C1706.08 2027.31 1721.17 1977.3 1723.89 1922.45C1725.11 1897.88 1724.26 1873.41 1717.85 1849.79C1708.98 1817.09 1690.62 1794.35 1666.1 1778.1C1643.05 1762.8 1618.59 1759.14 1592.82 1763.11C1569.07 1766.78 1546.18 1774.64 1523.19 1782.35C1499.44 1790.33 1478.53 1778.27 1454.5 1785C1440.44 1788.94 1424.5 1794 1409.5 1794C1398.5 1794 1410.33 1794 1399.5 1794C1387 1794 1378.28 1782.33 1378.24 1773.16C1378.19 1762.72 1380.19 1752.72 1382.85 1742.9C1388.89 1720.58 1396.94 1699.19 1404.33 1677.49C1412.11 1654.64 1419.14 1631.48 1422.88 1607.06C1426.99 1580.36 1421.21 1552.27 1414.87 1526.17C1393.2 1482.88 1374.54 1472.12 1345.56 1463.32C1319.08 1460.55 1298.43 1459.15 1260.62 1467.48C1235.93 1477.62 1215.76 1482.55 1190.01 1497.24C1171.91 1507.56 1153.46 1516.91 1133.89 1522.52C1119.67 1526.6 1105.35 1527.96 1090.98 1523.95C1066.17 1517.03 1052.64 1499.29 1040.35 1472.12C1028.76 1446.5 1023.21 1417.87 1023.21 1391.01C1023.21 1387.82 1023.21 1377.85 1023.86 1370.56L966.499 1364.5Z" fill="#019FCB"/>
<path d="M297.72 2601.3C297.295 2601.78 296.719 2602.1 296.538 2603H169.002C169.305 2602.76 169.622 2602.57 169.959 2602.45C177.448 2601.2 184.872 2599.25 192.302 2597.33C217.586 2590.8 241.941 2579.91 265.139 2563.55C279.285 2553.59 293.392 2543.53 307.543 2533.63C318.91 2525.68 330.468 2518.45 342.87 2514.73C353.963 2511.4 365.096 2510.21 376.199 2514.47C386.501 2518.43 394.561 2526.62 398.674 2541.8C402.2 2554.79 402.786 2568.37 402.225 2582.15C401.937 2589.28 400.53 2596.09 399.465 2603H360.484C361.129 2599.6 362.39 2596.54 361.544 2592.58C359.845 2584.59 355.795 2580.41 351.008 2577.37C345.737 2574.02 340.296 2574.17 334.835 2576.3C321.519 2581.46 308.882 2588.96 297.72 2601.3Z" fill="#F7A81B"/>
<path d="M122.48 2261.04C126.392 2271.28 127.403 2282.33 126.402 2293.81C125.337 2306.07 121.713 2316.99 117.722 2327.62C110.79 2346.07 102.726 2363.56 96.097 2382.27C86.1956 2410.27 76.8168 2438.6 70.5399 2468.95C67.7214 2482.58 65.2741 2496.29 65.5281 2510.74C65.8652 2530.38 71.7074 2546.12 81.3401 2558.94C88.3253 2568.24 96.7173 2574.42 104.885 2581.09C118.879 2592.51 133.666 2599.65 149.668 2601.19C153.009 2601.5 156.399 2601.74 159.682 2602.97H46.5557C44.7386 2600.68 42.9117 2598.41 41.1043 2596.11C31.3495 2583.67 23.5094 2569.26 19.6798 2550.71C16.1823 2533.78 16.5535 2516.65 18.7908 2499.53C22.6058 2470.3 29.7277 2442.7 37.7436 2415.55C41.4512 2402.98 45.5641 2390.71 48.4364 2377.66C49.5989 2372.37 50.5124 2366.98 50.3268 2361.37C50.0874 2354.09 47.7574 2349.61 43.6493 2348.81C41.6026 2348.41 39.5608 2348.49 37.5336 2349.04C30.7487 2350.92 24.7648 2355.64 18.8787 2360.57C3.267 2373.65 -12.076 2387.44 -28.1371 2399.28C-49.3809 2414.92 -71.0155 2428.91 -95.073 2431.85C-102.918 2432.88 -110.724 2432.45 -118.495 2430.54C-119.663 2430.28 -120 2429.6 -120 2427.93C-119.971 2394.12 -119.971 2360.33 -120 2326.53C-120 2324.23 -119.507 2324.1 -118.305 2324.93C-114.91 2327.32 -111.31 2328.82 -107.705 2330.23C-98.1259 2333.94 -88.4395 2335.68 -78.5771 2333.56C-72.6422 2332.31 -66.7365 2330.8 -60.8503 2329.17C-47.0949 2325.35 -33.4566 2320.68 -20.6097 2312.33C-1.35398 2299.83 17.5207 2286.04 36.8106 2273.62C47.1028 2267 57.1361 2259.48 67.7947 2254.15C79.3569 2248.39 91.1145 2244.02 103.449 2245.1C111.504 2245.82 118.288 2250.1 122.48 2261.04Z" fill="#F7A81B"/>
<path d="M124.062 1608.51C93.1562 1642.87 60.4088 1672.82 25.8296 1698.38C-1.87186 1718.94 -30.0716 1737.99 -57.5484 1759.25C-73.4629 1771.57 -88.9574 1784.85 -103.475 1800.58C-109.107 1806.68 -114.49 1813.23 -119.629 1820.22C-119.824 1819.6 -119.932 1819.43 -119.932 1819.26C-119.932 1794.88 -119.946 1770.51 -119.976 1746.12C-119.971 1744.91 -119.639 1743.92 -118.979 1743.19C-113.826 1736.33 -108.408 1729.97 -102.727 1724.1C-86.5541 1707.3 -69.2278 1693.44 -51.7062 1680.13C-23.0033 1658.34 6.16357 1637.85 34.2021 1614.18C55.0649 1596.59 75.5271 1577.99 94.3726 1555.81C110.727 1536.56 125.23 1514.78 136.65 1488.66C146.532 1466.09 152.34 1441.76 152.203 1414.61C152.13 1398.28 148.212 1384.46 140.436 1372.95C132.659 1361.44 123.325 1352.77 113.584 1345.31C92.7117 1329.28 70.1783 1322.76 46.9611 1320.35C34.9153 1319.1 22.8499 1319.14 10.7797 1319.54C-7.29395 1320.16 -25.3138 1322.05 -43.3484 1323.62C-52.3656 1324.4 -61.378 1325.24 -70.3855 1326.13C-86.1584 1327.7 -101.926 1329.33 -117.689 1331.01C-119.653 1331.22 -120.005 1330.32 -120 1327.61C-119.941 1289.55 -119.941 1251.47 -120 1213.38C-120 1210.72 -119.629 1209.87 -117.714 1209.78C-106.689 1209.24 -95.7032 1208.72 -84.7174 1207.68C-62.6725 1205.6 -40.6227 1203.82 -18.5387 1203.15C6.73508 1202.37 32.0039 1202.82 57.1849 1206.63C70.7059 1208.68 83.9436 1212.62 96.7905 1219.36C116.769 1229.86 135.453 1244.35 153.61 1260.35C163.731 1269.28 172.998 1279.83 180.51 1293.46C190.558 1311.72 197.084 1332.73 202.414 1354.69C204.07 1361.37 205.393 1368.2 206.39 1375.16C207.386 1382.12 208.051 1389.15 208.373 1396.25C208.695 1403.35 208.676 1410.45 208.319 1417.55C207.958 1424.65 207.264 1431.67 206.229 1438.62C202.243 1466.26 194.554 1491.33 184.135 1514.8C167.898 1551.39 147.641 1582.24 124.062 1608.51Z" fill="#F7A81B"/>
<path d="M477.5 2610.79C477.427 2605.23 476.396 2599.89 475.698 2594.49C472.268 2567.99 472.229 2541.5 475.175 2514.89C479.552 2475.43 475.175 2438.02 462.514 2402.78C457.052 2387.53 449.725 2374.43 440.278 2364.18C425.013 2347.6 407.785 2343.34 389.398 2346.8C372.951 2349.9 357.735 2358.74 342.759 2368.69C327.562 2378.81 312.786 2390.24 297.526 2400.14C283.536 2409.2 269.268 2417.09 254.13 2420.87C243.95 2423.41 233.75 2423.57 223.678 2419.5C200.847 2410.28 189.67 2383.02 194.653 2348.79C196.929 2333.16 201.565 2318.98 206.811 2305.2C213.782 2286.88 221.817 2269.49 228.504 2250.93C234.42 2234.52 239.285 2217.53 241.312 2199.03C242.792 2185.5 242.616 2172.1 239.192 2159.16C234.527 2141.57 225.573 2130.54 214.109 2123.45C203.968 2117.17 193.29 2114.34 182.407 2113.04C164.001 2110.84 145.727 2113.13 127.517 2116.99C107.04 2121.33 86.7729 2127.53 66.3107 2132.01C53.7324 2134.77 41.1346 2137.22 28.3659 2136.34C21.6982 2135.88 15.1477 2134.46 8.90497 2130.81C-4.40112 2123.01 -11.7917 2107.64 -15.6409 2087.98C-19.3045 2069.3 -18.5132 2050.5 -15.8363 2031.76C-11.4938 2001.28 -2.64748 1973.59 8.1918 1947.17C24.1308 1908.33 44.2609 1874.66 66.4768 1843.57C94.7058 1804.07 126.3 1771.33 159.473 1741.74C185.054 1718.92 211.1 1697.25 236.505 1674C261.589 1651.06 285.866 1626.45 308.028 1597.48C338.46 1557.7 362.493 1511.09 377.66 1454.94C385.715 1425.18 390.752 1394.42 391.45 1362.28C392.642 1307.35 381.212 1258.77 357.775 1216.3C342.207 1188.07 323 1166.24 302.064 1147.54C287.541 1134.56 273.789 1124.89 258.5 1114.08C257.665 1113.48 255.5 1112 254.52 1111.48C220.99 1093.68 200 1086.49 156.5 1076.08L102 1063.07L-9 1046.93C-3.744 1049.81 -39.0369 1159.96 -28.5 1151.57C-11.5 1138.03 87.6995 1154.5 134 1175.51C153.5 1184.37 176.726 1193.74 200 1216.3C229 1244.41 254.52 1261.41 277 1345.23C282.292 1364.96 281.178 1399.79 281.5 1421.76C281.5 1467.05 266.9 1500.36 254.52 1537.85C244.826 1567.21 227.747 1591.69 210.201 1613.84C187.946 1641.92 163.249 1664.54 138.122 1686.4C95.7218 1723.31 55.1588 1764.4 16.2028 1808.89C-5.52948 1833.72 -24.0232 1863.26 -40.646 1895.5C-49.3067 1912.27 -58.6219 1928.33 -65.9979 1946.51C-83.9055 1990.65 -95.5654 2037.88 -97.6707 2089.67C-98.6135 2112.87 -97.9589 2135.97 -93.0057 2158.28C-86.1524 2189.15 -71.9622 2210.63 -53.0191 2225.97C-35.2093 2240.42 -16.3102 2243.88 3.60013 2240.13C21.9571 2236.66 39.6399 2229.24 57.4058 2221.95C75.7529 2214.42 94.0024 2206.29 112.569 2199.94C123.433 2196.22 134.419 2194.33 145.551 2197.02C152.053 2198.6 157.748 2202.8 162.736 2209.11C167.196 2214.77 169.369 2221.98 169.404 2230.64C169.443 2240.5 167.894 2249.94 165.838 2259.21C161.173 2280.28 154.954 2300.48 149.244 2320.97C143.231 2342.55 137.799 2364.42 134.912 2387.48C131.737 2412.69 132.309 2437.67 137.208 2462.32C145.83 2505.66 169.257 2533.96 199.684 2537.86C220.146 2540.47 239.896 2535.41 259.239 2525.72C278.319 2516.15 296.627 2503.84 314.837 2491.17C328.827 2481.42 343.081 2472.6 358.204 2467.3C369.19 2463.45 380.249 2462.16 391.357 2465.95C410.525 2472.49 421.882 2491.08 426.972 2518.32C431.637 2543.34 430.44 2568.43 425.59 2593.26C424.456 2599.05 422.981 2604.73 422.429 2610.75L477.5 2610.79Z" fill="#019FCB"/>
</svg>
